COMMENT @(#)60	1.3  src/bos/usr/lpp/tls/fonts/Chtpd17.bdf, cmdtw, bos411, 9428A410j 2/24/94 13:39:26
COMMENT
COMMENT   COMPONENT_NAME: cmdtw
COMMENT
COMMENT   FUNCTIONS: none
COMMENT
COMMENT   ORIGINS: 27
COMMENT
COMMENT   IBM CONFIDENTIAL -- (IBM Confidential Restricted when
COMMENT   combined with the aggregated modules for this product)
COMMENT                    SOURCE MATERIALS
COMMENT
COMMENT   (C) COPYRIGHT International Business Machines Corp. 1992
COMMENT   All Rights Reserved
COMMENT   US Government Users Restricted Rights - Use, duplication or
COMMENT   disclosure restricted by GSA ADP Schedule Contract with IBM Corp.
COMMENT
STARTFONT 2.1
FONT  -IBM_AIX-Sung-Medium-R-Normal--27-170-100-100-M-260-IBM-sbdTW
SIZE 27 100 100
FONTBOUNDINGBOX 26 27 0 -1
STARTPROPERTIES 20
FONTNAME_REGISTRY "-"
FOUNDRY "IBM_AIX"
FAMILY_NAME "Sung"
WEIGHT_NAME "Medium"
SLANT "R"
SETWIDTH_NAME "Normal"
ADD_STYLE_NAME ""
PIXEL_SIZE 27
POINT_SIZE 170
RESOLUTION_X 100
RESOLUTION_Y 100
SPACING "M"
AVERAGE_WIDTH 260
CHARSET_REGISTRY "IBM"
CHARSET_ENCODING "sbdTW"
FONT_ASCENT 26
FONT_DESCENT 1
DEFAULT_CHAR 358
CAP_HEIGHT 27
COPYRIGHT "Copyright, 1992 by IBM."
ENDPROPERTIES
CHARS 326
STARTCHAR 2121
ENCODING 8481
SWIDTH 962 0
DWIDTH 26 0
BBX 26 27 0 -1
BITMAP
00000000
00000000
06000000
61800000
18c00000
0ce00000
0e600000
06000000
00000000
00000000
00000000
00000000
00000000
00000000
00000000
00000000
00000000
00000000
00000000
00000000
00000000
00000000
00000000
00000000
00000000
00000000
00000000
ENDCHAR
STARTCHAR 2122
ENCODING 8482
SWIDTH 962 0
DWIDTH 26 0
BBX 26 27 0 -1
BITMAP
00000000
0f000000
10800000
20400000
20400000
20400000
20400000
10800000
0f000000
00000000
00000000
00000000
00000000
00000000
00000000
00000000
00000000
00000000
00000000
00000000
00000000
00000000
00000000
00000000
00000000
00000000
00000000
ENDCHAR
STARTCHAR 2123
ENCODING 8483
SWIDTH 962 0
DWIDTH 26 0
BBX 26 27 0 -1
BITMAP
00000000
00000000
0300c000
0781e000
0781e000
0300c000
00000000
00000000
00000000
00000000
00000000
00000000
00000000
00000000
00000000
00000000
00000000
00000000
00000000
00000000
00000000
00000000
00000000
00000000
00000000
00000000
00000000
ENDCHAR
STARTCHAR 2124
ENCODING 8484
SWIDTH 962 0
DWIDTH 26 0
BBX 26 27 0 -1
BITMAP
00000000
00000000
00180000
003c0000
00660000
00c30000
01818000
01008000
00000000
00000000
00000000
00000000
00000000
00000000
00000000
00000000
00000000
00000000
00000000
00000000
00000000
00000000
00000000
00000000
00000000
00000000
00000000
ENDCHAR
STARTCHAR 2125
ENCODING 8485
SWIDTH 962 0
DWIDTH 26 0
BBX 26 27 0 -1
BITMAP
00000000
00000000
00000000
00000000
00000000
00000000
00000000
03000000
00c00000
00600000
00300000
00180000
001c0000
000c0000
000e0000
00070000
00070000
00060000
00000000
00000000
00000000
00000000
00000000
00000000
00000000
00000000
00000000
ENDCHAR
STARTCHAR 2126
ENCODING 8486
SWIDTH 962 0
DWIDTH 26 0
BBX 26 27 0 -1
BITMAP
00000000
00000000
00000000
00000000
00018000
0000c000
000c6000
0c060000
03030000
01800000
00c00000
00600000
00700000
00300000
00380000
001c0000
001c0000
00180000
00000000
00000000
00000000
00000000
00000000
00000000
00000000
00000000
00000000
ENDCHAR
STARTCHAR 2127
ENCODING 8487
SWIDTH 962 0
DWIDTH 26 0
BBX 26 27 0 -1
BITMAP
00000000
00000000
00000000
00000000
00000000
00000000
00000000
01000000
01000000
00800000
00c00000
00600000
00380000
000c0000
00060000
00038000
0001c000
0003c000
000e0000
00700000
00000000
00000000
00000000
00000000
00000000
00000000
00000000
ENDCHAR
STARTCHAR 2128
ENCODING 8488
SWIDTH 962 0
DWIDTH 26 0
BBX 26 27 0 -1
BITMAP
00000000
00000000
00000000
00000000
0000c000
00006000
04063000
04030000
02018000
03000000
01800000
00c00000
00700000
00180000
000c0000
00070000
00038000
000f8000
00380000
01c00000
00000000
00000000
00000000
00000000
00000000
00000000
00000000
ENDCHAR
STARTCHAR 2129
ENCODING 8489
SWIDTH 962 0
DWIDTH 26 0
BBX 26 27 0 -1
BITMAP
00000000
00000000
00000000
00000000
00000000
00000000
00000000
00c18000
00e1c000
00c18000
00c18000
00c18000
01830000
01830000
01020000
03060000
02040000
04080000
08100000
00000000
00000000
00000000
00000000
00000000
00000000
00000000
00000000
ENDCHAR
STARTCHAR 212a
ENCODING 8490
SWIDTH 962 0
DWIDTH 26 0
BBX 26 27 0 -1
BITMAP
00000000
001c0000
00180000
00380000
00340000
00760000
00e30000
01c18000
0300c000
06006000
0c003000
18001c00
2000cf00
cfffe600
00180000
00180000
00180000
00180000
00180000
00180000
00180400
00180e00
ffffff00
00000000
00000000
00000000
00000000
ENDCHAR
STARTCHAR 212b
ENCODING 8491
SWIDTH 962 0
DWIDTH 26 0
BBX 26 27 0 -1
BITMAP
00000000
00000000
00000000
00000000
00600000
00300000
00300000
00602000
0041f000
00ff3800
00c07000
01806000
0100c000
0300c000
06018000
04630000
08140000
100c0000
00060000
00030000
00038000
00018000
00000000
00000000
00000000
00000000
00000000
ENDCHAR
STARTCHAR 212c
ENCODING 8492
SWIDTH 962 0
DWIDTH 26 0
BBX 26 27 0 -1
BITMAP
00000000
00000000
00000000
00000000
0000c000
00006000
00006000
00006000
0000c000
0061c000
01998000
020f0000
04060000
040c0000
080e0000
081b0000
08338000
18618000
18c1c000
1b818000
3e000000
18000000
00000000
00000000
00000000
00000000
00000000
ENDCHAR
STARTCHAR 212d
ENCODING 8493
SWIDTH 962 0
DWIDTH 26 0
BBX 26 27 0 -1
BITMAP
00000000
00000000
00000000
00000000
00000000
00000000
00ff0000
0781e000
1c003800
30000c00
20000400
60000600
40000200
40000200
60000600
20000400
30000c00
1c003800
0781e000
00ff0000
00000000
00000000
00000000
00000000
00000000
00000000
00000000
ENDCHAR
STARTCHAR 212e
ENCODING 8494
SWIDTH 962 0
DWIDTH 26 0
BBX 26 27 0 -1
BITMAP
00000000
00000000
00000000
00000000
00000000
00000000
00000000
00000000
00000000
00000000
6000f000
3ffffc00
1f000600
00000000
00000000
00000000
00000000
00000000
00000000
00000000
00000000
00000000
00000000
00000000
00000000
00000000
00000000
ENDCHAR
STARTCHAR 212f
ENCODING 8495
SWIDTH 962 0
DWIDTH 26 0
BBX 26 27 0 -1
BITMAP
00000000
00000000
00000000
00000000
00000000
00000000
00000000
00000000
00000000
00000000
00000000
00000000
00ff0000
00ff0000
00000000
00000000
00000000
00000000
00000000
00000000
00000000
00000000
00000000
00000000
00000000
00000000
00000000
ENDCHAR
STARTCHAR 2130
ENCODING 8496
SWIDTH 962 0
DWIDTH 26 0
BBX 26 27 0 -1
BITMAP
00000000
0000fc00
00008000
00008000
00008000
00008000
00008000
00008000
00008000
00008000
00008000
00008000
00008000
00008000
00008000
00008000
00008000
00008000
00008000
00008000
00008000
00008000
00008000
00008000
0000fc00
00000000
00000000
ENDCHAR
STARTCHAR 2131
ENCODING 8497
SWIDTH 962 0
DWIDTH 26 0
BBX 26 27 0 -1
BITMAP
00000000
3f000000
01000000
01000000
01000000
01000000
01000000
01000000
01000000
01000000
01000000
01000000
01000000
01000000
01000000
01000000
01000000
01000000
01000000
01000000
01000000
01000000
01000000
01000000
3f000000
00000000
00000000
ENDCHAR
STARTCHAR 2132
ENCODING 8498
SWIDTH 962 0
DWIDTH 26 0
BBX 26 27 0 -1
BITMAP
00000000
00000000
18000000
18000000
18000000
30000000
30000000
20000000
40000000
00000000
00000000
00000000
00000000
00000000
00000000
00000000
00000000
00000000
00000000
00000000
00000000
00000000
00000000
00000000
00000000
00000000
00000000
ENDCHAR
STARTCHAR 2133
ENCODING 8499
SWIDTH 962 0
DWIDTH 26 0
BBX 26 27 0 -1
BITMAP
00000000
00000000
33000000
33000000
33000000
66000000
66000000
44000000
88000000
00000000
00000000
00000000
00000000
00000000
00000000
00000000
00000000
00000000
00000000
00000000
00000000
00000000
00000000
00000000
00000000
00000000
00000000
ENDCHAR
STARTCHAR 2134
ENCODING 8500
SWIDTH 962 0
DWIDTH 26 0
BBX 26 27 0 -1
BITMAP
00000000
00000000
00000000
00000000
00100000
00380000
00380000
0c386000
0e10e000
0711c000
03118000
00820000
00000000
00000000
00820000
03118000
0711c000
0e10e000
0c386000
00380000
00380000
00100000
00000000
00000000
00000000
00000000
00000000
ENDCHAR
STARTCHAR 2135
ENCODING 8501
SWIDTH 962 0
DWIDTH 26 0
BBX 26 27 0 -1
BITMAP
00000000
00000000
00000000
00000000
00000000
00000000
7ffffe00
7ffffe00
7ffffe00
7ffffe00
7ffffe00
00000000
00000000
00000000
00000000
7ffffe00
7ffffe00
7ffffe00
7ffffe00
7ffffe00
00000000
00000000
00000000
00000000
00000000
00000000
00000000
ENDCHAR
STARTCHAR 2136
ENCODING 8502
SWIDTH 962 0
DWIDTH 26 0
BBX 26 27 0 -1
BITMAP
00000000
00000000
00000000
00000000
00000000
007ff000
01800000
02000000
04000000
04000000
08000000
08000000
0ffff000
08000000
08000000
04000000
04000000
02000000
01800000
007ff000
00000000
00000000
00000000
00000000
00000000
00000000
00000000
ENDCHAR
STARTCHAR 2137
ENCODING 8503
SWIDTH 962 0
DWIDTH 26 0
BBX 26 27 0 -1
BITMAP
00000000
00000000
00000000
00000000
00000000
0ffe0000
00018000
00004000
00002000
00002000
00001000
00001000
0ffff000
00001000
00001000
00002000
00002000
00004000
00018000
0ffe0000
00000000
00000000
00000000
00000000
00000000
00000000
00000000
ENDCHAR
STARTCHAR 2138
ENCODING 8504
SWIDTH 962 0
DWIDTH 26 0
BBX 26 27 0 -1
BITMAP
00000000
00000000
00000000
00000000
01fff800
06000000
08000000
08000000
10000000
10000000
10000000
10000000
10000000
08000000
08000000
06000000
01fff800
00000000
00000000
00000000
1ffff800
00000000
00000000
00000000
00000000
00000000
00000000
ENDCHAR
STARTCHAR 2139
ENCODING 8505
SWIDTH 962 0
DWIDTH 26 0
BBX 26 27 0 -1
BITMAP
00000000
00000000
00000000
00000000
1fff8000
00006000
00001000
00001000
00000800
00000800
00000800
00000800
00000800
00001000
00001000
00006000
1fff8000
00000000
00000000
00000000
1ffff800
00000000
00000000
00000000
00000000
00000000
00000000
ENDCHAR
STARTCHAR 213a
ENCODING 8506
SWIDTH 962 0
DWIDTH 26 0
BBX 26 27 0 -1
BITMAP
00000000
00000000
00000000
00000000
00000000
00fff800
03000000
04000000
08000000
08000000
10000000
10000000
10000000
10000000
10000000
10000000
08000000
08000000
04000000
03000000
00fff800
00000000
00000000
00000000
00000000
00000000
00000000
ENDCHAR
STARTCHAR 213b
ENCODING 8507
SWIDTH 962 0
DWIDTH 26 0
BBX 26 27 0 -1
BITMAP
00000000
00000000
00000000
00000000
00000000
1fff0000
0000c000
00002000
00001000
00001000
00000800
00000800
00000800
00000800
00000800
00000800
00001000
00001000
00002000
0000c000
1fff0000
00000000
00000000
00000000
00000000
00000000
00000000
ENDCHAR
STARTCHAR 213c
ENCODING 8508
SWIDTH 962 0
DWIDTH 26 0
BBX 26 27 0 -1
BITMAP
00000000
00000000
00000000
00000000
00100000
00100000
00280000
00280000
00440000
00440000
00820000
00820000
01010000
01010000
02008000
02008000
04004000
04004000
08002000
08002000
10001000
10001000
00000000
00000000
00000000
00000000
00000000
ENDCHAR
STARTCHAR 213d
ENCODING 8509
SWIDTH 962 0
DWIDTH 26 0
BBX 26 27 0 -1
BITMAP
00000000
00000000
00000000
00000000
10001000
10001000
08002000
08002000
04004000
04004000
02008000
02008000
01010000
01010000
00820000
00820000
00440000
00440000
00280000
00280000
00100000
00100000
00000000
00000000
00000000
00000000
00000000
ENDCHAR
STARTCHAR 213e
ENCODING 8510
SWIDTH 962 0
DWIDTH 26 0
BBX 26 27 0 -1
BITMAP
00000000
00000000
00000000
00000000
00000000
00008000
00004000
00002000
00001000
fffff800
00000400
00000200
00000100
00000200
00000400
fffff800
00001000
00002000
00004000
00008000
00000000
00000000
00000000
00000000
00000000
00000000
00000000
ENDCHAR
STARTCHAR 213f
ENCODING 8511
SWIDTH 962 0
DWIDTH 26 0
BBX 26 27 0 -1
BITMAP
00000000
00000000
00000000
00000000
00000000
01008000
02004000
04002000
08001000
1ffff800
20000400
40000200
80000100
40000200
20000400
1ffff800
08001000
04002000
02004000
01008000
00000000
00000000
00000000
00000000
00000000
00000000
00000000
ENDCHAR
STARTCHAR 2140
ENCODING 8512
SWIDTH 962 0
DWIDTH 26 0
BBX 26 27 0 -1
BITMAP
00000000
00000000
00000000
20000800
20000800
10001000
10001000
08002000
08002000
07ffc000
04004000
02008000
02008000
01010000
01010000
00820000
00820000
00440000
00440000
00280000
00280000
00100000
00100000
00000000
00000000
00000000
00000000
ENDCHAR
STARTCHAR 2141
ENCODING 8513
SWIDTH 962 0
DWIDTH 26 0
BBX 26 27 0 -1
BITMAP
00000000
00000000
00000000
00000000
0fffc000
00004000
00004000
00004000
00004000
00004000
00004000
00004000
0fffc000
00004000
00004000
00004000
00004000
00004000
00004000
00004000
0fffc000
00000000
00000000
00000000
00000000
00000000
00000000
ENDCHAR
STARTCHAR 2142
ENCODING 8514
SWIDTH 962 0
DWIDTH 26 0
BBX 26 27 0 -1
BITMAP
00000000
00ff0000
0f00f000
30000c00
c0000300
00000000
00000000
00000000
00000000
00000000
00000000
00000000
00000000
00000000
00000000
00000000
00000000
00000000
00000000
00000000
00000000
00000000
00000000
00000000
00000000
00000000
00000000
ENDCHAR
STARTCHAR 2143
ENCODING 8515
SWIDTH 962 0
DWIDTH 26 0
BBX 26 27 0 -1
BITMAP
00000000
00000000
00000000
001f0000
00608000
00804000
00004000
00004000
00004000
00004000
00788000
01848000
02028000
04010000
04010000
08020000
08020000
08040000
08080000
08100000
04600000
03800000
00000000
00000000
00000000
00000000
00000000
ENDCHAR
STARTCHAR 2144
ENCODING 8516
SWIDTH 962 0
DWIDTH 26 0
BBX 26 27 0 -1
BITMAP
00000000
00000000
00000000
3ffffc00
20000400
10000800
10000800
08001000
08001000
04002000
04002000
02004000
02004000
01008000
01008000
00810000
00810000
00420000
00420000
00240000
00240000
00180000
00180000
00000000
00000000
00000000
00000000
ENDCHAR
STARTCHAR 2145
ENCODING 8517
SWIDTH 962 0
DWIDTH 26 0
BBX 26 27 0 -1
BITMAP
00000000
00000000
00000000
00080400
00100800
00201000
00402000
00804000
01008000
02010000
04020000
08040000
30180000
08040000
04020000
02010000
01008000
00804000
00402000
00201000
00100800
00080400
00000000
00000000
00000000
00000000
00000000
ENDCHAR
STARTCHAR 2146
ENCODING 8518
SWIDTH 962 0
DWIDTH 26 0
BBX 26 27 0 -1
BITMAP
00000000
00000000
00000000
20100000
10080000
08040000
04020000
02010000
01008000
00804000
00402000
00201000
00180c00
00201000
00402000
00804000
01008000
02010000
04020000
08040000
10080000
20100000
00000000
00000000
00000000
00000000
00000000
ENDCHAR
STARTCHAR 2147
ENCODING 8519
SWIDTH 962 0
DWIDTH 26 0
BBX 26 27 0 -1
BITMAP
00000000
00000000
00000000
00000000
00000000
00000000
00000000
0381c000
0c023000
10040800
20040400
20080400
20080400
20100400
20100400
20200400
10200800
0c403000
0381c000
00000000
00000000
00000000
00000000
00000000
00000000
00000000
00000000
ENDCHAR
STARTCHAR 2148
ENCODING 8520
SWIDTH 962 0
DWIDTH 26 0
BBX 26 27 0 -1
BITMAP
00000000
00000000
00000000
00000000
00000000
00000000
00000000
0380e000
0c631800
10140400
20080000
20080000
20080000
20080000
20080000
20080000
10140400
0c631800
0380e000
00000000
00000000
00000000
00000000
00000000
00000000
00000000
00000000
ENDCHAR
STARTCHAR 2149
ENCODING 8521
SWIDTH 962 0
DWIDTH 26 0
BBX 26 27 0 -1
BITMAP
00000000
0300c000
04812000
08421000
08020000
08020000
08020000
04010000
04010000
04010000
02008000
02008000
02008000
01004000
01004000
01004000
00802000
00802000
00802000
00401000
00401000
00401000
08421000
04812000
0300c000
00000000
00000000
ENDCHAR
STARTCHAR 214a
ENCODING 8522
SWIDTH 962 0
DWIDTH 26 0
BBX 26 27 0 -1
BITMAP
00000000
00380000
00440000
00440000
00440000
00380000
00000000
00000000
00100000
00280000
00280000
00440000
00440000
00820000
00820000
01010000
01ff0000
02008000
02008000
04004000
04004000
3f83f800
00000000
00000000
00000000
00000000
00000000
ENDCHAR
STARTCHAR 214b
ENCODING 8523
SWIDTH 962 0
DWIDTH 26 0
BBX 26 27 0 -1
BITMAP
00000000
00000000
00000000
0c020000
12020000
21040000
21080000
21080000
21100000
21200000
21200000
12400000
0c800000
00981800
01242400
02424200
02424200
04424200
08424200
08424200
10424200
20242400
20181800
00000000
00000000
00000000
00000000
ENDCHAR
STARTCHAR 214c
ENCODING 8524
SWIDTH 962 0
DWIDTH 26 0
BBX 26 27 0 -1
BITMAP
00000000
00010000
00810000
00810000
00813800
0081f800
008fc000
00ff0000
03f10000
1f810000
1c810000
00810000
00810000
00810000
00810000
00813800
0081f800
008fc000
00ff0000
03f10000
1f810000
1c810000
00810000
00810000
00000000
00000000
00000000
ENDCHAR
STARTCHAR 214d
ENCODING 8525
SWIDTH 962 0
DWIDTH 26 0
BBX 26 27 0 -1
BITMAP
00000000
01000000
01000000
01000000
01000000
01000000
01000000
01000000
01000000
01000000
01000000
010f0000
0130c000
01c02000
01001000
01001000
01001000
01001000
01002000
01002000
0100c000
01030000
011c0000
01e00000
00000000
00000000
00000000
ENDCHAR
STARTCHAR 214e
ENCODING 8526
SWIDTH 962 0
DWIDTH 26 0
BBX 26 27 0 -1
BITMAP
00000000
00080000
00080000
000c0000
000b0000
0008c000
00082000
00081000
00081000
00080800
00080800
00080800
00081000
00081000
00082000
00084000
00080000
00080000
00080000
03e80000
0ff80000
0ff80000
0ff80000
07e00000
00000000
00000000
00000000
ENDCHAR
STARTCHAR 214f
ENCODING 8527
SWIDTH 962 0
DWIDTH 26 0
BBX 26 27 0 -1
BITMAP
00000000
00100000
00100000
007c0000
00100000
01110000
01110000
07ffc000
01110000
01110000
00100000
00380000
00fe0000
007c0000
007c0000
00380000
00380000
00380000
00380000
00100000
00100000
00100000
00100000
00100000
00000000
00000000
00000000
ENDCHAR
STARTCHAR 2150
ENCODING 8528
SWIDTH 962 0
DWIDTH 26 0
BBX 26 27 0 -1
BITMAP
00000000
00100000
00100000
007c0000
00100000
01110000
01110000
07ffc000
01110000
01110000
00100000
007c0000
00100000
00100000
007c0000
00100000
01110000
01110000
07ffc000
01110000
01110000
00100000
007c0000
00100000
00000000
00000000
00000000
ENDCHAR
STARTCHAR 2151
ENCODING 8529
SWIDTH 962 0
DWIDTH 26 0
BBX 26 27 0 -1
BITMAP
00000000
00000000
00000000
00ff8000
03f08000
07f08000
07f08000
07f08000
07f08000
07f08000
07f08000
03f08000
00f08000
00108000
00108000
00108000
00108000
00108000
00108000
00108000
00108000
00108000
00108000
00108000
00000000
00000000
00000000
ENDCHAR
STARTCHAR 2152
ENCODING 8530
SWIDTH 962 0
DWIDTH 26 0
BBX 26 27 0 -1
BITMAP
00000000
007e0000
0381c000
0c003000
10000800
20000400
20000400
40000200
40000200
40000200
80000100
80000100
80000100
80000100
80000100
80000100
40000200
40000200
40000200
20000400
20000400
10000800
0c003000
0381c000
007e0000
00000000
00000000
ENDCHAR
STARTCHAR 2153
ENCODING 8531
SWIDTH 962 0
DWIDTH 26 0
BBX 26 27 0 -1
BITMAP
00000000
00000000
00000000
00000000
00000000
00000000
00000000
00000000
00600000
00300000
00210000
043f8000
03f00000
00200000
00200000
007f8000
01e26000
02243000
04283000
08303000
0c603000
0fa02000
0600c000
00030000
00000000
00000000
00000000
ENDCHAR
STARTCHAR 2154
ENCODING 8532
SWIDTH 962 0
DWIDTH 26 0
BBX 26 27 0 -1
BITMAP
00000000
00000000
00000000
00600000
00300000
00300000
00218000
0c3fc000
07f00000
00200000
00200000
003fe000
00e23000
03221800
06260c00
0c240c00
082c0c00
18380c00
18300c00
18e01800
1fa03000
0f00e000
00078000
00000000
00000000
00000000
00000000
ENDCHAR
STARTCHAR 2155
ENCODING 8533
SWIDTH 962 0
DWIDTH 26 0
BBX 26 27 0 -1
BITMAP
00000000
00000000
00000000
00000000
00000000
00000000
00000000
00000000
00000000
00000000
04000000
02000000
03010000
03008000
06006000
06002000
04003000
04003000
04403000
06403000
02800000
03800000
01800000
00000000
00000000
00000000
00000000
ENDCHAR
STARTCHAR 2156
ENCODING 8534
SWIDTH 962 0
DWIDTH 26 0
BBX 26 27 0 -1
BITMAP
00000000
00000000
00000000
00000000
00000000
00000000
30000000
18000000
1c018000
18006000
18003000
18001800
10001800
10001c00
10000c00
10400c00
10800c00
18800c00
19800000
0d000000
0f000000
03000000
00000000
00000000
00000000
00000000
00000000
ENDCHAR
STARTCHAR 2157
ENCODING 8535
SWIDTH 962 0
DWIDTH 26 0
BBX 26 27 0 -1
BITMAP
00000000
00000000
00000000
00000000
00000000
00000000
00000000
00400000
003c0000
001e0000
00200000
00000000
001f0000
04e08000
0380c000
0100c000
0000c000
0000c000
00018000
00018000
00030000
00020000
000c0000
00300000
00000000
00000000
00000000
ENDCHAR
STARTCHAR 2158
ENCODING 8536
SWIDTH 962 0
DWIDTH 26 0
BBX 26 27 0 -1
BITMAP
00000000
00000000
00800000
007e0000
000f0000
00180000
00200000
00000000
00000000
001f0000
0470c000
07c06000
03006000
00006000
00006000
00006000
00006000
0000c000
0000c000
00018000
00030000
00060000
00180000
00600000
00000000
00000000
00000000
ENDCHAR
STARTCHAR 2159
ENCODING 8537
SWIDTH 962 0
DWIDTH 26 0
BBX 26 27 0 -1
BITMAP
00000000
00000000
00000000
00000000
00000000
00000000
00000000
00400000
003c0000
001e0000
00200000
00000000
020f0000
01f60000
008c0000
00080000
00300000
00400000
00f80000
01840000
03040000
0607e000
0603e000
00000000
00000000
00000000
00000000
ENDCHAR
STARTCHAR 215a
ENCODING 8538
SWIDTH 962 0
DWIDTH 26 0
BBX 26 27 0 -1
BITMAP
00000000
00000000
00000000
00800000
007c0000
001e0000
00600000
00000000
00070000
087f8000
0fce0000
06180000
00300000
00200000
00400000
00980000
01e40000
03840000
06040000
0c040000
0c060000
1807f800
1801f800
00000000
00000000
00000000
00000000
ENDCHAR
STARTCHAR 215b
ENCODING 8539
SWIDTH 962 0
DWIDTH 26 0
BBX 26 27 0 -1
BITMAP
00000000
00000000
00000000
00000000
00000000
00000000
00000000
00000000
01800000
00c00000
00900000
08f8e000
07803000
02802000
00800000
009f0000
00f0c000
03806000
04806000
0c806000
0c806000
0680c000
01830000
00000000
00000000
00000000
00000000
ENDCHAR
STARTCHAR 215c
ENCODING 8540
SWIDTH 962 0
DWIDTH 26 0
BBX 26 27 0 -1
BITMAP
00000000
00000000
00000000
03000000
01800000
01800000
01800000
0100f800
01700c00
33e01c00
1f000000
01000000
0107c000
011c3000
01701800
03c00c00
07000c00
2d000c00
39001800
31001800
0d003000
03006000
01038000
00000000
00000000
00000000
00000000
ENDCHAR
STARTCHAR 215d
ENCODING 8541
SWIDTH 962 0
DWIDTH 26 0
BBX 26 27 0 -1
BITMAP
00000000
00000000
00000000
01800000
00c00000
00c00000
00c00000
00800000
00800000
41f84000
3f8c3000
19861800
01020c00
03020e00
02020600
06060600
06061800
0c060000
0c060000
180c0000
188c0000
30780000
30300000
00000000
00000000
00000000
00000000
ENDCHAR
STARTCHAR 215e
ENCODING 8542
SWIDTH 962 0
DWIDTH 26 0
BBX 26 27 0 -1
BITMAP
00000000
00000000
00000000
01800c00
00c00600
00c06300
00c03000
00c01800
00800000
41f84000
3f8c3000
19861800
01020c00
03020e00
02020600
06060600
06061800
0c060000
0c060000
180c0000
188c0000
30780000
30300000
00000000
00000000
00000000
00000000
ENDCHAR
STARTCHAR 215f
ENCODING 8543
SWIDTH 962 0
DWIDTH 26 0
BBX 26 27 0 -1
BITMAP
00000000
00000000
00000000
03800000
00c00000
00c08000
0063c000
0c7f0000
03f80000
00181000
000c7800
1c0fe000
03fe0000
00060000
00030000
00038000
01ffc000
0201c000
04008000
04000000
06000000
03000000
01fe0000
007e0000
00000000
00000000
00000000
ENDCHAR
STARTCHAR 2160
ENCODING 8544
SWIDTH 962 0
DWIDTH 26 0
BBX 26 27 0 -1
BITMAP
00000000
00000000
00000000
03801800
00c00c00
00c06600
00673000
0c7e1800
03f80000
00180000
000ce000
1c0fc000
03fe0000
00060000
00030000
00038000
01ffc000
0201c000
04008000
04000000
06000000
03000000
01fe0000
007e0000
00000000
00000000
00000000
ENDCHAR
STARTCHAR 2161
ENCODING 8545
SWIDTH 962 0
DWIDTH 26 0
BBX 26 27 0 -1
BITMAP
00000000
00000000
00000000
000c0000
000e0000
000e0000
001c0000
00380000
00600000
00c00000
01800000
01000000
02000000
04000000
04000000
03000000
00c00000
00600000
00300000
001c0000
000e0000
00070000
00038000
00030000
00000000
00000000
00000000
ENDCHAR
STARTCHAR 2162
ENCODING 8546
SWIDTH 962 0
DWIDTH 26 0
BBX 26 27 0 -1
BITMAP
00000000
00000000
00000000
00180000
000c3000
001c1800
00198c00
0030c000
00606000
00c00000
01800000
01000000
02000000
04000000
04000000
03000000
00c00000
00600000
00300000
00180000
000c0000
000e0000
00070000
00060000
00000000
00000000
00000000
ENDCHAR
STARTCHAR 2163
ENCODING 8547
SWIDTH 962 0
DWIDTH 26 0
BBX 26 27 0 -1
BITMAP
00000000
00000000
00000000
00070000
30018000
18018000
18018000
18019800
1801bc00
10c7e000
30798000
30018000
20018000
20018000
20018000
22018000
22018000
34030000
34030000
14060000
1c060000
0c0c0000
04180000
00200000
00000000
00000000
00000000
ENDCHAR
STARTCHAR 2164
ENCODING 8548
SWIDTH 962 0
DWIDTH 26 0
BBX 26 27 0 -1
BITMAP
00000000
00000000
00000c00
00066600
30033300
18019800
18018000
18018000
18019800
10c7fc00
30798000
30018000
20018000
20018000
20018000
22018000
22018000
34030000
34030000
1c060000
1c060000
0c0c0000
04180000
00200000
00000000
00000000
00000000
ENDCHAR
STARTCHAR 2165
ENCODING 8549
SWIDTH 962 0
DWIDTH 26 0
BBX 26 27 0 -1
BITMAP
00000000
00000000
00000000
00000000
00000000
02038000
01ffc000
00030000
000e0000
00300000
00000000
00000000
00000000
00000000
00000000
08000000
08000000
0c000000
0c000000
07000000
03fff000
00ffe000
00000000
00000000
00000000
00000000
00000000
ENDCHAR
STARTCHAR 2166
ENCODING 8550
SWIDTH 962 0
DWIDTH 26 0
BBX 26 27 0 -1
BITMAP
00000000
00000000
00000000
00000000
00000000
03031800
01ff8c00
00060600
000c6000
00303000
00001800
00000000
00000000
00000000
00000000
08000000
08000000
08000000
0c000000
07000000
03fff000
00ffe000
00000000
00000000
00000000
00000000
00000000
ENDCHAR
STARTCHAR 2167
ENCODING 8551
SWIDTH 962 0
DWIDTH 26 0
BBX 26 27 0 -1
BITMAP
00000000
00000000
00000000
01c00000
00600000
00600000
00300000
00307000
0818f800
07ff8000
000c0000
00060000
00060000
00030000
00018000
00ffc000
0301c000
04008000
04000000
04000000
06000000
03800000
01ff0000
007e0000
00000000
00000000
00000000
ENDCHAR
STARTCHAR 2168
ENCODING 8552
SWIDTH 962 0
DWIDTH 26 0
BBX 26 27 0 -1
BITMAP
00000000
00000000
00001800
03800c00
00c06600
00c03000
00601800
00618000
1033c000
0ffe0000
00180000
000c0000
000c0000
00060000
00030000
01ff8000
06038000
08010000
08000000
08000000
0c000000
07000000
03fe0000
00fc0000
00000000
00000000
00000000
ENDCHAR
STARTCHAR 2169
ENCODING 8553
SWIDTH 962 0
DWIDTH 26 0
BBX 26 27 0 -1
BITMAP
00000000
00000000
00000000
0e000000
03000000
03800000
03000000
03000000
03000000
03000000
06000000
06000000
06000000
06000000
06001000
06001000
06002000
06006000
0600c000
06018000
03070000
03fe0000
01f80000
00000000
00000000
00000000
00000000
ENDCHAR
STARTCHAR 216a
ENCODING 8554
SWIDTH 962 0
DWIDTH 26 0
BBX 26 27 0 -1
BITMAP
00000000
00000000
00000000
0e060000
03030000
03818000
03180000
030c0000
03060000
03000000
06000000
06000000
06000000
06000000
06001000
06001000
06002000
06006000
0600c000
06018000
03070000
03fe0000
01f80000
00000000
00000000
00000000
00000000
ENDCHAR
STARTCHAR 216b
ENCODING 8555
SWIDTH 962 0
DWIDTH 26 0
BBX 26 27 0 -1
BITMAP
00000000
00000000
00000000
001c0000
000e0000
00060000
00061800
4007fc00
3ffe0200
18060000
00060000
003e0000
004c0000
00860000
00860000
00860000
004e0000
00360000
00060000
000c0000
000c0000
00180000
00300000
00c00000
00000000
00000000
00000000
ENDCHAR
STARTCHAR 216c
ENCODING 8556
SWIDTH 962 0
DWIDTH 26 0
BBX 26 27 0 -1
BITMAP
00000000
00000c00
00006600
001c3300
000e1800
00060000
00061800
401ffc00
3ffe0200
18060000
00060000
003e0000
004c0000
00860000
00860000
00860000
004e0000
00360000
00060000
000e0000
000c0000
00180000
00300000
00c00000
00000000
00000000
00000000
ENDCHAR
STARTCHAR 216d
ENCODING 8557
SWIDTH 962 0
DWIDTH 26 0
BBX 26 27 0 -1
BITMAP
00000000
00000000
00000000
00000000
00070000
0e018000
03018000
03018000
03018000
03019800
831ffc00
7ff18200
33018000
03018000
03018000
03118000
030b0000
03070000
03020000
03000000
01800000
00ffe000
003fc000
00000000
00000000
00000000
00000000
ENDCHAR
STARTCHAR 216e
ENCODING 8558
SWIDTH 962 0
DWIDTH 26 0
BBX 26 27 0 -1
BITMAP
00000000
00000000
00000c00
00000600
00070300
0e019800
03018c00
03018600
03018000
03019800
831ffc00
7ff18200
33018000
03018000
03018000
03118000
030b0000
03070000
03020000
03000000
01800000
00ffe000
003fc000
00000000
00000000
00000000
00000000
ENDCHAR
STARTCHAR 216f
ENCODING 8559
SWIDTH 962 0
DWIDTH 26 0
BBX 26 27 0 -1
BITMAP
00000000
00000000
00000000
00010000
040f8000
03f9c000
01830000
000e0000
00180000
00600000
00803000
0303f800
063c7000
3fe1c000
1e060000
08080000
00100000
00300000
00200000
00200000
00300000
001c0000
000fe000
0003e000
00000000
00000000
00000000
ENDCHAR
STARTCHAR 2170
ENCODING 8560
SWIDTH 962 0
DWIDTH 26 0
BBX 26 27 0 -1
BITMAP
00000000
00000000
00000c00
00020600
081f3300
07f39800
03070c00
001c0000
00300000
00c00000
01006000
0607f000
0c78e000
7fc38000
3c0c0000
10100000
00200000
00600000
00400000
00400000
00600000
00380000
001fc000
0007c000
00000000
00000000
00000000
ENDCHAR
STARTCHAR 2171
ENCODING 8561
SWIDTH 962 0
DWIDTH 26 0
BBX 26 27 0 -1
BITMAP
00000000
00000000
00000000
03000000
01800000
01800000
01800000
01980000
21fc0000
1f807800
03018c00
03000000
03000000
02000000
06000000
06000000
06000000
0c000000
0c080000
0c080000
1c040000
1803fe00
1800fc00
00000000
00000000
00000000
00000000
ENDCHAR
STARTCHAR 2172
ENCODING 8562
SWIDTH 962 0
DWIDTH 26 0
BBX 26 27 0 -1
BITMAP
00000000
00000000
00001800
0300cc00
01806600
01803000
01800000
01980000
21fc0000
1f807800
03018c00
03000000
03000000
02000000
06000000
06000000
06000000
0c000000
0c080000
0c080000
1c040000
1803fe00
1800fc00
00000000
00000000
00000000
00000000
ENDCHAR
STARTCHAR 2173
ENCODING 8563
SWIDTH 962 0
DWIDTH 26 0
BBX 26 27 0 -1
BITMAP
00000000
00000000
00000000
01c00000
00600000
00600000
0061c000
107fe000
0fc00000
00c00000
01800000
01800000
0307e000
03183000
06601800
0f801800
06001800
00001800
00003000
00003000
00006000
00018000
003e0000
00000000
00000000
00000000
00000000
ENDCHAR
STARTCHAR 2174
ENCODING 8564
SWIDTH 962 0
DWIDTH 26 0
BBX 26 27 0 -1
BITMAP
00000000
00000000
00000000
03800c00
00c00600
00c03300
00c31800
20ff8c00
1f800000
01800000
03000000
03000000
030fc000
06306000
0ec03000
1f003000
04003000
00003000
00006000
00006000
0000c000
00030000
007c0000
00000000
00000000
00000000
00000000
ENDCHAR
STARTCHAR 2175
ENCODING 8565
SWIDTH 962 0
DWIDTH 26 0
BBX 26 27 0 -1
BITMAP
00000000
00000000
00000000
00000000
00000000
00000000
00000000
00000000
00000000
00000000
00000000
00000000
00078000
10f86000
0f803000
06003000
00003000
00003000
00003000
00006000
0000c000
00038000
001c0000
00000000
00000000
00000000
00000000
ENDCHAR
STARTCHAR 2176
ENCODING 8566
SWIDTH 962 0
DWIDTH 26 0
BBX 26 27 0 -1
BITMAP
00000000
00000000
00000000
00000000
00000000
00000000
00000000
00000000
000fe000
00f83000
47c01800
7e000c00
38000c00
00000c00
00000c00
00000c00
00001800
00001800
00003000
00006000
0003c000
003e0000
00000000
00000000
00000000
00000000
00000000
ENDCHAR
STARTCHAR 2177
ENCODING 8567
SWIDTH 962 0
DWIDTH 26 0
BBX 26 27 0 -1
BITMAP
00000000
00000000
00001800
00000c00
00006600
00003000
00001800
00000000
000fe000
00f83000
47c01800
7e000c00
38000c00
00000c00
00000c00
00000c00
00001800
00001800
00003000
00006000
0003c000
003e0000
00000000
00000000
00000000
00000000
00000000
ENDCHAR
STARTCHAR 2178
ENCODING 8568
SWIDTH 962 0
DWIDTH 26 0
BBX 26 27 0 -1
BITMAP
00000000
00000000
00000000
00000000
00000000
00007000
403ff800
3fe30000
1e040000
00080000
00100000
00200000
00600000
00400000
00c00000
00c00000
00c00000
00c00000
00600000
00600000
00300000
001f8000
0007c000
00000000
00000000
00000000
00000000
ENDCHAR
STARTCHAR 2179
ENCODING 8569
SWIDTH 962 0
DWIDTH 26 0
BBX 26 27 0 -1
BITMAP
00000000
00000000
00000000
00000000
00000000
00007000
403ff800
3fe30000
1e040000
00081800
00100c00
0020c600
00606000
00403000
00400000
00c00000
00c00000
00c00000
00600000
00600000
00380000
001f8000
0007c000
00000000
00000000
00000000
00000000
ENDCHAR
STARTCHAR 217a
ENCODING 8570
SWIDTH 962 0
DWIDTH 26 0
BBX 26 27 0 -1
BITMAP
00000000
00000000
00000000
03800000
00c00000
00c00000
00c00000
00c08000
00c04000
00c06000
0061e000
006f8000
00380000
00c00000
01800000
03000000
02000000
06000000
04000000
06000000
06000000
03ffe000
01ffc000
00000000
00000000
00000000
00000000
ENDCHAR
STARTCHAR 217b
ENCODING 8571
SWIDTH 962 0
DWIDTH 26 0
BBX 26 27 0 -1
BITMAP
00000000
00000000
00003000
03801800
00c0cc00
00c06000
00c03000
00c00000
00c00000
00c0e000
0063e000
006f0000
00380000
00e00000
01800000
03000000
02000000
04000000
04000000
04000000
06000000
03ffe000
00ffc000
00000000
00000000
00000000
00000000
ENDCHAR
STARTCHAR 217c
ENCODING 8572
SWIDTH 962 0
DWIDTH 26 0
BBX 26 27 0 -1
BITMAP
00000000
00000000
00000000
03000000
01800000
01b00000
21f3c000
1f007000
03003800
0201c800
06020000
06020000
04020000
0c020000
0c030000
18010000
18018000
30018000
307f8000
0081f000
0081b800
00831800
007e0000
00000000
00000000
00000000
00000000
ENDCHAR
STARTCHAR 217d
ENCODING 8573
SWIDTH 962 0
DWIDTH 26 0
BBX 26 27 0 -1
BITMAP
00000000
00000000
00000000
00000000
30000000
18000000
1830f000
180ff800
18000000
10000000
30000000
30000000
20000000
20000000
20000000
22200000
22400000
34400000
34600000
183ff800
180ffc00
08000000
00000000
00000000
00000000
00000000
00000000
ENDCHAR
STARTCHAR 217e
ENCODING 8574
SWIDTH 962 0
DWIDTH 26 0
BBX 26 27 0 -1
BITMAP
00000000
00000000
00400000
00200000
00300000
00300000
007f8000
40b06000
23303000
34301800
18600800
18600c00
18600c00
18c00c00
2cc00c00
26800c00
23001800
2387d800
23c83000
34883800
3c086e00
1807c400
00000000
00000000
00000000
00000000
00000000
ENDCHAR
STARTCHAR 2221
ENCODING 8737
SWIDTH 962 0
DWIDTH 26 0
BBX 26 27 0 -1
BITMAP
00000000
00000000
00000000
07000000
01800000
01800000
01000000
41c3e000
3f8c3000
19b01000
01401800
01801800
03001800
05001800
0d001800
09001800
19001800
310fd800
71103800
25101c00
03083600
0307e600
01000000
00000000
00000000
00000000
00000000
ENDCHAR
STARTCHAR 2222
ENCODING 8738
SWIDTH 962 0
DWIDTH 26 0
BBX 26 27 0 -1
BITMAP
00000000
00000000
00000000
00000000
00000000
003f8000
00d0f000
03101800
04100c00
0c100c00
18100600
18300600
30200600
30200600
30600600
30600600
30c00c00
30c00c00
19801800
1f003000
0e00e000
00078000
00000000
00000000
00000000
00000000
00000000
ENDCHAR
STARTCHAR 2223
ENCODING 8739
SWIDTH 962 0
DWIDTH 26 0
BBX 26 27 0 -1
BITMAP
00000000
00000000
00000000
30070000
18018000
18018000
18018000
18019800
18c1fc00
103f8000
30018000
30018000
20018000
20018000
20018000
22018000
22018000
347f8000
3481c000
1881f000
1841b800
083f1800
00000000
00000000
00000000
00000000
00000000
ENDCHAR
STARTCHAR 2224
ENCODING 8740
SWIDTH 962 0
DWIDTH 26 0
BBX 26 27 0 -1
BITMAP
00000000
00000600
00003300
00071900
30018c00
18018000
18018000
18019800
18c1fc00
103f8000
30018000
30018000
20018000
20018000
20018000
22018000
22018000
347f8000
3481c000
1881f000
1841b800
083f1800
00000000
00000000
00000000
00000000
00000000
ENDCHAR
STARTCHAR 2225
ENCODING 8741
SWIDTH 962 0
DWIDTH 26 0
BBX 26 27 0 -1
BITMAP
00000000
00001c00
00002200
30072200
1801a200
18019c00
18018000
18019800
18c1fc00
103f8000
30018000
30018000
20018000
20018000
20018000
22018000
22018000
347f8000
3481c000
1881f000
1841b800
083f1800
00000000
00000000
00000000
00000000
00000000
ENDCHAR
STARTCHAR 2226
ENCODING 8742
SWIDTH 962 0
DWIDTH 26 0
BBX 26 27 0 -1
BITMAP
00000000
00000000
00000000
00000000
00000000
40610000
3ff18000
1ce18000
01818000
03014000
06014000
0c012000
08013000
18011000
18011800
30031c00
30020c00
30020000
30060000
38040000
1c0c0000
0ff80000
03e00000
00000000
00000000
00000000
00000000
ENDCHAR
STARTCHAR 2227
ENCODING 8743
SWIDTH 962 0
DWIDTH 26 0
BBX 26 27 0 -1
BITMAP
00000000
00000000
00001800
00000c00
00006600
20613000
1ff19800
0ce18000
01818000
03014000
06014000
0c012000
08013000
18011800
18011c00
30030c00
30020000
30020000
30060000
38040000
1c0c0000
0ff80000
03e00000
00000000
00000000
00000000
00000000
ENDCHAR
STARTCHAR 2228
ENCODING 8744
SWIDTH 962 0
DWIDTH 26 0
BBX 26 27 0 -1
BITMAP
00000000
00000000
00000000
00001c00
00002200
20612200
1ff1a200
0ce19c00
01818000
03014000
06014000
0c012000
08013000
18011800
18011c00
30030c00
30020000
30020000
30060000
38040000
1c0c0000
0ff80000
03e00000
00000000
00000000
00000000
00000000
ENDCHAR
STARTCHAR 2229
ENCODING 8745
SWIDTH 962 0
DWIDTH 26 0
BBX 26 27 0 -1
BITMAP
00000000
00000000
00000000
00000000
00700000
001c0000
000e0000
000e0000
00180000
00200000
00400000
00400000
00200000
00300000
001f8000
00fc6000
01863000
03021800
46030c00
4c030600
78030600
30860000
007c0000
00180000
00000000
00000000
00000000
ENDCHAR
STARTCHAR 222a
ENCODING 8746
SWIDTH 962 0
DWIDTH 26 0
BBX 26 27 0 -1
BITMAP
00000000
00000000
00000000
00000000
00700000
001c0000
000e1800
000e0c00
00186600
00203000
00401800
00400000
00200000
00300000
001f8000
007c6000
01c63000
03061800
46030c00
4c030600
78030600
30860000
007c0000
00180000
00000000
00000000
00000000
ENDCHAR
STARTCHAR 222b
ENCODING 8747
SWIDTH 962 0
DWIDTH 26 0
BBX 26 27 0 -1
BITMAP
00000000
00000000
00000000
00000000
00700000
001c0000
000e0000
000e0000
00183800
00204400
00404400
00404400
00203800
00300000
001f8000
007c6000
01c63000
03061800
46030c00
4c030600
78030600
30860000
007c0000
00180000
00000000
00000000
00000000
ENDCHAR
STARTCHAR 222c
ENCODING 8748
SWIDTH 962 0
DWIDTH 26 0
BBX 26 27 0 -1
BITMAP
00000000
00000000
00000000
00000000
00000000
00000000
00c00000
01200000
01200000
03100000
06180000
0c0c0000
98060000
f0030000
60018000
0000c000
00006000
00003800
00001e00
00000600
00000000
00000000
00000000
00000000
00000000
00000000
00000000
ENDCHAR
STARTCHAR 222d
ENCODING 8749
SWIDTH 962 0
DWIDTH 26 0
BBX 26 27 0 -1
BITMAP
00000000
00000000
00000000
00000000
00006000
00003000
00c31800
01218000
0120c000
03100000
06180000
0c0c0000
98060000
f0030000
60018000
0000c000
00006000
00003800
00001e00
00000600
00000000
00000000
00000000
00000000
00000000
00000000
00000000
ENDCHAR
STARTCHAR 222e
ENCODING 8750
SWIDTH 962 0
DWIDTH 26 0
BBX 26 27 0 -1
BITMAP
00000000
00000000
00000000
00000000
00007000
00008800
00c08800
01208800
01207000
03100000
06180000
0c0c0000
98060000
f0030000
60018000
0000c000
00006000
00003800
00001e00
00000600
00000000
00000000
00000000
00000000
00000000
00000000
00000000
ENDCHAR
STARTCHAR 222f
ENCODING 8751
SWIDTH 962 0
DWIDTH 26 0
BBX 26 27 0 -1
BITMAP
00000000
00000000
00000000
30002000
1821f000
181f0000
18018000
18018000
18018000
10019800
30c1fc00
307f8000
20018000
20018000
20018000
22018000
22018000
343f8000
3441f000
1841b800
18219800
081f0000
00000000
00000000
00000000
00000000
00000000
ENDCHAR
STARTCHAR 2230
ENCODING 8752
SWIDTH 962 0
DWIDTH 26 0
BBX 26 27 0 -1
BITMAP
00000000
00000000
00000600
00002300
6021f100
301f0c00
30018600
30018600
30018000
2001b000
60c1f800
607f8000
40018000
40018000
40018000
44018000
44018000
683f8000
6841f000
3041b800
30219800
101f0000
00000000
00000000
00000000
00000000
00000000
ENDCHAR
STARTCHAR 2231
ENCODING 8753
SWIDTH 962 0
DWIDTH 26 0
BBX 26 27 0 -1
BITMAP
00000000
00000e00
00001100
60009100
3043d100
303e0e00
30030000
30030000
30030000
20036000
6183f000
60ff0000
40030000
40030000
40030000
44030000
44030000
687f0000
6883e000
30837000
30433000
103e0000
00000000
00000000
00000000
00000000
00000000
ENDCHAR
STARTCHAR 2232
ENCODING 8754
SWIDTH 962 0
DWIDTH 26 0
BBX 26 27 0 -1
BITMAP
00000000
00000000
00380000
000c0000
000c0000
000cc000
040f8000
03fc0000
000c0000
000c0000
000c3800
180ff000
07fc0000
000c0000
000c0000
000c0000
000c0000
07fc0000
081f8000
080de000
040c6000
03f80000
00000000
00000000
00000000
00000000
00000000
ENDCHAR
STARTCHAR 2233
ENCODING 8755
SWIDTH 962 0
DWIDTH 26 0
BBX 26 27 0 -1
BITMAP
00000000
00000000
00000000
00000000
000c0000
047e0000
07cc0000
03180000
00100000
00300000
00206000
00603000
03f03000
0cce3000
1081e000
21007000
41005c00
42004e00
66004600
3c00c000
18008000
00010000
00060000
00000000
00000000
00000000
00000000
ENDCHAR
STARTCHAR 2234
ENCODING 8756
SWIDTH 962 0
DWIDTH 26 0
BBX 26 27 0 -1
BITMAP
00000000
00000000
06000000
01800000
01800000
01900000
11f80000
0fc00000
03003000
03004800
03008c00
0f008400
11808600
11809e00
11008400
13008000
1a008000
0e004000
06006000
06006000
06006000
03ffc000
01ff8000
00000000
00000000
00000000
00000000
ENDCHAR
STARTCHAR 2235
ENCODING 8757
SWIDTH 962 0
DWIDTH 26 0
BBX 26 27 0 -1
BITMAP
00000000
00000000
00000000
00080000
00040000
10060000
08060000
0c060000
0c7fc000
058c3000
060c1800
0e080800
1b180c00
11100c00
21b00c00
20e00c00
20600c00
30b01800
31b01800
1f003000
0c006000
00018000
001e0000
00000000
00000000
00000000
00000000
ENDCHAR
STARTCHAR 2236
ENCODING 8758
SWIDTH 962 0
DWIDTH 26 0
BBX 26 27 0 -1
BITMAP
00000000
00000000
00600000
00300000
00300000
00600000
10600000
0c600000
07fe0000
00cc0000
00c00000
00800000
41804000
31802000
0fb01000
01f81000
03001800
03001800
03001800
03001800
01003000
0180e000
00ffc000
003f0000
00000000
00000000
00000000
ENDCHAR
STARTCHAR 2237
ENCODING 8759
SWIDTH 962 0
DWIDTH 26 0
BBX 26 27 0 -1
BITMAP
00000000
00000000
00000000
00000000
00000000
00000000
00000000
00000000
00040000
01c30000
01a30000
010c0000
0083e000
00cc1000
11f03000
0e403000
06642000
0063c000
00300000
00100000
00180000
00180000
000c0000
000c0000
00000000
00000000
00000000
ENDCHAR
STARTCHAR 2238
ENCODING 8760
SWIDTH 962 0
DWIDTH 26 0
BBX 26 27 0 -1
BITMAP
00000000
00000000
00000000
00100000
000c0000
03860000
04660000
041cf800
06070c00
027c0600
03e00600
4f000600
7d000600
31880c00
00861800
00c1f000
00400000
00600000
00600000
00300000
00300000
00180000
00180000
00180000
00000000
00000000
00000000
ENDCHAR
STARTCHAR 2239
ENCODING 8761
SWIDTH 962 0
DWIDTH 26 0
BBX 26 27 0 -1
BITMAP
00000000
00000000
00000000
00000000
00000000
00000000
00000000
00000000
00080000
00060000
04060000
020fc000
02362000
02663000
04863000
05063000
05463000
05242000
0714c000
020f0000
02040000
00080000
00100000
00000000
00000000
00000000
00000000
ENDCHAR
STARTCHAR 223a
ENCODING 8762
SWIDTH 962 0
DWIDTH 26 0
BBX 26 27 0 -1
BITMAP
00000000
00000000
000c0000
00020000
30030000
18030000
180fc000
10733000
10831800
21030c00
22030c00
24030c00
24030c00
28830c00
28831800
38431800
18623000
18366000
080f8000
00060000
00060000
000c0000
00180000
00600000
00000000
00000000
00000000
ENDCHAR
STARTCHAR 223b
ENCODING 8763
SWIDTH 962 0
DWIDTH 26 0
BBX 26 27 0 -1
BITMAP
00000000
00000000
00000000
00000000
00000000
00000000
00000000
00000000
00000000
00300000
00180000
001c0000
00180000
00198000
001fc000
00180000
00100000
00100000
00100000
03fe0000
04198000
0418e000
03f02000
00000000
00000000
00000000
00000000
ENDCHAR
STARTCHAR 223c
ENCODING 8764
SWIDTH 962 0
DWIDTH 26 0
BBX 26 27 0 -1
BITMAP
00000000
00000000
00000000
00380000
000c0000
000e0000
000c0000
000c0000
000c7000
000ff800
000c0000
000c0000
000c0000
000c0000
00080000
00080000
00080000
00080000
07fc0000
080f8000
080ce000
040c3800
03f81800
00000000
00000000
00000000
00000000
ENDCHAR
STARTCHAR 223d
ENCODING 8765
SWIDTH 962 0
DWIDTH 26 0
BBX 26 27 0 -1
BITMAP
00000000
00000000
00600000
001c0000
00070000
001f0000
00600000
00800000
01000000
02000000
03000000
03000000
03000000
030fe000
03383000
03e01800
03001800
06001800
02001800
00003000
00007000
0000e000
00038000
003c0000
00000000
00000000
00000000
ENDCHAR
STARTCHAR 223e
ENCODING 8766
SWIDTH 962 0
DWIDTH 26 0
BBX 26 27 0 -1
BITMAP
00000000
00000000
02000000
01800000
01000000
01000000
011f0000
03318000
0220c000
0620c000
0640c000
0640c000
06c0c000
0780c000
0380c000
0300c000
0000c000
00018000
00018000
00030000
00030000
00060000
000c0000
00300000
00000000
00000000
00000000
ENDCHAR
STARTCHAR 223f
ENCODING 8767
SWIDTH 962 0
DWIDTH 26 0
BBX 26 27 0 -1
BITMAP
00000000
00000000
00000000
00000000
00030000
087f8000
07c30000
03060000
000c0000
00180000
00600000
00c00000
018f8000
0330c000
0fc06000
1e003000
1c003000
00003000
00f83000
010c6000
0106c000
01038000
00fe0000
00000000
00000000
00000000
00000000
ENDCHAR
STARTCHAR 2240
ENCODING 8768
SWIDTH 962 0
DWIDTH 26 0
BBX 26 27 0 -1
BITMAP
00000000
00000000
00000000
03000000
01800000
01800000
0103c000
010e2000
01982000
4fb02000
39202000
11406000
01806000
03006000
05006000
0d006000
09006000
19006200
35006200
73006400
23003c00
01800000
01000000
00000000
00000000
00000000
00000000
ENDCHAR
STARTCHAR 2241
ENCODING 8769
SWIDTH 962 0
DWIDTH 26 0
BBX 26 27 0 -1
BITMAP
00000000
00000000
00000000
00000000
00038000
087fc000
07c38000
03060000
000c0000
00180000
00300000
00600000
00c00000
031f8000
06606000
0d803000
1e001800
18001800
00001800
00003000
00003000
00006000
00018000
001e0000
00000000
00000000
00000000
ENDCHAR
STARTCHAR 2242
ENCODING 8770
SWIDTH 962 0
DWIDTH 26 0
BBX 26 27 0 -1
BITMAP
00000000
00000000
00000000
00000000
00000000
00000000
00000000
00000000
01800000
00c00000
00c00000
00e00000
0bc38000
069c6000
00e03000
01803000
02803000
04803000
0c803000
18802000
1280c000
01c18000
00860000
00000000
00000000
00000000
00000000
ENDCHAR
STARTCHAR 2243
ENCODING 8771
SWIDTH 962 0
DWIDTH 26 0
BBX 26 27 0 -1
BITMAP
00000000
00000000
00000000
01800000
00c00000
00c00000
00800000
20e00000
1fc3e000
0c8c1800
00b00c00
00c00600
01800600
02800600
06800600
04800600
0c800600
18800c00
3a800c00
11801800
01806000
00c78000
00800000
00000000
00000000
00000000
00000000
ENDCHAR
STARTCHAR 2244
ENCODING 8772
SWIDTH 962 0
DWIDTH 26 0
BBX 26 27 0 -1
BITMAP
00000000
00000000
00000000
00000000
000c0000
047e0000
038c0000
00080000
00180000
00100000
003fc000
00e03000
03401800
04400c00
08800c00
08800c00
11000c00
13000c00
12001800
161e1800
1c213000
08216000
001f8000
00000000
00000000
00000000
00000000
ENDCHAR
STARTCHAR 2245
ENCODING 8773
SWIDTH 962 0
DWIDTH 26 0
BBX 26 27 0 -1
BITMAP
00000000
00000000
00060000
023f0000
01c60000
000c0000
00100000
00200000
00478000
00b8c000
01c06000
03006000
06306000
0048c000
003f8000
00c00000
01000000
02000000
0403c000
09843000
16481800
38780c00
30300c00
30300000
00000000
00000000
00000000
ENDCHAR
STARTCHAR 2246
ENCODING 8774
SWIDTH 962 0
DWIDTH 26 0
BBX 26 27 0 -1
BITMAP
00000000
00000000
00000000
00600000
00300000
00330000
083f8000
07f00000
00600000
00c00000
0180e000
01011000
02621000
07943000
0e1c6000
1818c000
301f0000
00f80000
01180000
02180000
02000000
02000000
01ffe000
00ffe000
00000000
00000000
00000000
ENDCHAR
STARTCHAR 2247
ENCODING 8775
SWIDTH 962 0
DWIDTH 26 0
BBX 26 27 0 -1
BITMAP
00000000
00000000
00000000
00600000
00300000
00300000
00600000
00600000
00c00000
00c00000
01800000
01000000
03380000
06c40000
05020000
0c020000
0c020000
18060400
18060400
30060800
30061000
60036000
2001c000
00000000
00000000
00000000
00000000
ENDCHAR
STARTCHAR 2248
ENCODING 8776
SWIDTH 962 0
DWIDTH 26 0
BBX 26 27 0 -1
BITMAP
00000000
00000000
00000000
00000000
00000000
00000000
00000000
00000000
00002000
0807f000
07fc6000
03006000
0020c000
0010c000
00198000
00190000
001e0000
00300000
00300000
00200000
00600000
00c00000
01800000
00000000
00000000
00000000
00000000
ENDCHAR
STARTCHAR 2249
ENCODING 8777
SWIDTH 962 0
DWIDTH 26 0
BBX 26 27 0 -1
BITMAP
00000000
00000000
00000000
00000000
00003000
100ff800
1ff81c00
0e001800
00001800
00303000
00183000
00186000
0018c000
00198000
003e0000
00300000
00300000
00600000
00600000
00c00000
01800000
03000000
0c000000
00000000
00000000
00000000
00000000
ENDCHAR
STARTCHAR 224a
ENCODING 8778
SWIDTH 962 0
DWIDTH 26 0
BBX 26 27 0 -1
BITMAP
00000000
00000000
00000000
00000000
00000000
00000000
00000000
00000000
00008000
0000c000
00018000
00030000
00060000
000c0000
003e0000
006c0000
018c0000
0e0c0000
000c0000
000c0000
000c0000
000c0000
000c0000
00000000
00000000
00000000
00000000
ENDCHAR
STARTCHAR 224b
ENCODING 8779
SWIDTH 962 0
DWIDTH 26 0
BBX 26 27 0 -1
BITMAP
00000000
00000000
00000000
00006000
00003000
00007000
00006000
0000e000
00018000
00030000
000e0000
001e0000
00770000
01c60000
07060000
3c060000
00060000
00060000
00060000
00060000
00060000
00070000
00060000
00000000
00000000
00000000
00000000
ENDCHAR
STARTCHAR 224c
ENCODING 8780
SWIDTH 962 0
DWIDTH 26 0
BBX 26 27 0 -1
BITMAP
00000000
00000000
00000000
00000000
00000000
00000000
00000000
00000000
00300000
00180000
00184000
081fe000
07f07000
06006000
06006000
0600c000
0600c000
00018000
00018000
00030000
00060000
001c0000
00f00000
00000000
00000000
00000000
00000000
ENDCHAR
STARTCHAR 224d
ENCODING 8781
SWIDTH 962 0
DWIDTH 26 0
BBX 26 27 0 -1
BITMAP
00000000
00000000
00000000
00300000
001c0000
00180000
00181000
101ff800
0ff81c00
08001800
0c001800
0c003800
0c003000
0c003000
0e003000
0c006000
00006000
0000c000
00018000
00030000
00060000
001c0000
00f00000
00000000
00000000
00000000
00000000
ENDCHAR
STARTCHAR 224e
ENCODING 8782
SWIDTH 962 0
DWIDTH 26 0
BBX 26 27 0 -1
BITMAP
00000000
00000000
00000000
00000000
00000000
00000000
00000000
00000000
00000000
00008000
040fc000
03f06000
01100000
00180000
00180000
00180000
00180000
00180000
00180000
00184000
081fe000
07f83000
02000000
00000000
00000000
00000000
00000000
ENDCHAR
STARTCHAR 224f
ENCODING 8783
SWIDTH 962 0
DWIDTH 26 0
BBX 26 27 0 -1
BITMAP
00000000
00000000
00000000
00000000
00000000
00000000
0000c000
100fe000
0ff83000
06100000
001c0000
00180000
00180000
00180000
00180000
00180000
00180000
00180000
00183000
601ff800
3ffc0c00
1c000000
00000000
00000000
00000000
00000000
00000000
ENDCHAR
STARTCHAR 2250
ENCODING 8784
SWIDTH 962 0
DWIDTH 26 0
BBX 26 27 0 -1
BITMAP
00000000
00000000
00000000
00000000
00000000
00000000
00000000
00000000
00060000
00030000
00030000
0803e000
07ff3000
02070000
000f0000
000b0000
001b0000
00330000
00630000
01830000
0e030000
001f8000
00030000
00000000
00000000
00000000
00000000
ENDCHAR
STARTCHAR 2251
ENCODING 8785
SWIDTH 962 0
DWIDTH 26 0
BBX 26 27 0 -1
BITMAP
00000000
00000000
00000000
00030000
0001c000
00018000
00018000
00018800
0801fc00
0fff8200
07038000
00078000
00058000
000d8000
00198000
00318000
00618000
00c18000
01818000
07018000
1c118000
000f8000
00030000
00000000
00000000
00000000
00000000
ENDCHAR
STARTCHAR 2252
ENCODING 8786
SWIDTH 962 0
DWIDTH 26 0
BBX 26 27 0 -1
BITMAP
00000000
00000000
00000000
00300000
001c0000
00180000
00180000
00183800
101ffc00
1ff81c00
0e181800
00301800
00301800
00301800
00301800
00601800
00601800
00c03800
00c03000
01803000
03087000
0607e000
3800c000
00000000
00000000
00000000
00000000
ENDCHAR
STARTCHAR 2253
ENCODING 8787
SWIDTH 962 0
DWIDTH 26 0
BBX 26 27 0 -1
BITMAP
00000000
00000000
00001800
0060cc00
00386600
00303000
00300000
00304000
203fe000
3ff07000
1c307000
00606000
00606000
00606000
00606000
00c06000
00c06000
0180e000
0180c000
0300c000
0611c000
0c0f8000
70030000
00000000
00000000
00000000
00000000
ENDCHAR
STARTCHAR 2254
ENCODING 8788
SWIDTH 962 0
DWIDTH 26 0
BBX 26 27 0 -1
BITMAP
00000000
00000000
00000000
00600000
00f00000
00300000
00304000
1037e000
1ffc3000
0c180000
00180000
00180000
00181000
0018f800
303f8c00
1fec0000
0c0c0000
000c0000
000c0000
000c0000
000c0000
000e0000
000c0000
00000000
00000000
00000000
00000000
ENDCHAR
STARTCHAR 2255
ENCODING 8789
SWIDTH 962 0
DWIDTH 26 0
BBX 26 27 0 -1
BITMAP
00000000
00000000
00001800
00c0cc00
01e06600
00603000
00608000
106fc000
1ff86000
0c300000
00300000
00300000
00302000
0031f000
607f1800
3fd80000
18180000
00180000
00180000
00180000
00180000
001c0000
00180000
00000000
00000000
00000000
00000000
ENDCHAR
STARTCHAR 2256
ENCODING 8790
SWIDTH 962 0
DWIDTH 26 0
BBX 26 27 0 -1
BITMAP
00000000
00000000
00000000
00c00000
00600000
00600000
00c04000
00c7e000
01fc7000
01806000
03006000
0600e000
0c00c000
30018000
00018000
00030000
00060000
000c0000
00180000
00300000
00600000
01c00000
1f000000
00000000
00000000
00000000
00000000
ENDCHAR
STARTCHAR 2257
ENCODING 8791
SWIDTH 962 0
DWIDTH 26 0
BBX 26 27 0 -1
BITMAP
00000000
00000000
00001800
01800c00
00c06600
00c03000
01809800
018fc000
03f8e000
0300c000
0600c000
0c01c000
18018000
60038000
00030000
00060000
000e0000
001c0000
00380000
00700000
00c00000
03800000
1e000000
00000000
00000000
00000000
00000000
ENDCHAR
STARTCHAR 2258
ENCODING 8792
SWIDTH 962 0
DWIDTH 26 0
BBX 26 27 0 -1
BITMAP
00000000
00000000
00000000
01800000
00e00000
00c00000
00c00000
01800800
0183fc00
01fe0600
03030000
03038000
06030000
0c030000
30070000
00060000
00060000
000c0000
000c0000
00180000
00300000
00e00000
07800000
00000000
00000000
00000000
00000000
ENDCHAR
STARTCHAR 2259
ENCODING 8793
SWIDTH 962 0
DWIDTH 26 0
BBX 26 27 0 -1
BITMAP
00000000
00000000
00001800
0180cc00
00e06600
00c03000
00c00000
01801000
0183f800
01fe0c00
03038000
03030000
06030000
0c030000
30060000
00060000
00060000
000c0000
000c0000
00180000
00300000
00e00000
07800000
00000000
00000000
00000000
00000000
ENDCHAR
STARTCHAR 225a
ENCODING 8794
SWIDTH 962 0
DWIDTH 26 0
BBX 26 27 0 -1
BITMAP
00000000
00000000
00000000
00000000
00000000
00000000
00008000
081fc000
0ff0e000
0600e000
0000c000
0000c000
0000c000
0000c000
0000c000
0001c000
00018000
00018000
00018000
1001c000
1fffe000
0f000000
00000000
00000000
00000000
00000000
00000000
ENDCHAR
STARTCHAR 225b
ENCODING 8795
SWIDTH 962 0
DWIDTH 26 0
BBX 26 27 0 -1
BITMAP
00000000
00000000
00001800
00000c00
00006600
00003000
00011800
103f8000
1fe1c000
0c01c000
00018000
00018000
00018000
00018000
00018000
00038000
00030000
00030000
00030000
20038000
3fffc000
1c000000
00000000
00000000
00000000
00000000
00000000
ENDCHAR
STARTCHAR 225c
ENCODING 8796
SWIDTH 962 0
DWIDTH 26 0
BBX 26 27 0 -1
BITMAP
00000000
00000000
00000000
00030000
0601c000
03818000
03018000
03018000
03018800
430ffc00
7ff98600
33018000
03018000
03018000
03030000
07030000
03030000
00060000
00060000
000c0000
00180000
00700000
01c00000
00000000
00000000
00000000
00000000
ENDCHAR
STARTCHAR 225d
ENCODING 8797
SWIDTH 962 0
DWIDTH 26 0
BBX 26 27 0 -1
BITMAP
00000000
00000000
00001800
00060c00
0c038600
07033000
06031800
06030c00
06032000
461ff000
7ff30800
36030000
06030000
06030000
06060000
0e060000
060e0000
000c0000
00180000
00300000
00600000
00c00000
03800000
00000000
00000000
00000000
00000000
ENDCHAR
STARTCHAR 225e
ENCODING 8798
SWIDTH 962 0
DWIDTH 26 0
BBX 26 27 0 -1
BITMAP
00000000
00000000
00000000
03000000
01c00000
00700000
00380000
00180000
00000800
38000800
0e000800
03801800
01803000
00003000
00006000
0000c000
00018000
00030000
000e0000
087c0000
0ff00000
07c00000
03000000
00000000
00000000
00000000
00000000
ENDCHAR
STARTCHAR 225f
ENCODING 8799
SWIDTH 962 0
DWIDTH 26 0
BBX 26 27 0 -1
BITMAP
00000000
00000000
00001800
03000c00
01c06600
00703000
00381800
00180000
00000000
38000800
0e000800
03801800
01801000
00003000
00002000
00006000
0000c000
00018000
00070000
001e0000
08780000
07e00000
03000000
00000000
00000000
00000000
00000000
ENDCHAR
STARTCHAR 2260
ENCODING 8800
SWIDTH 962 0
DWIDTH 26 0
BBX 26 27 0 -1
BITMAP
00000000
00000000
00000000
00000000
00004000
0c0fe000
07f87000
03806000
0000e000
0000c000
00018000
00018000
00030000
00030000
00060000
000e0000
00198000
0030c000
00606000
00c03000
01801800
07001c00
3c000c00
00000000
00000000
00000000
00000000
ENDCHAR
STARTCHAR 2261
ENCODING 8801
SWIDTH 962 0
DWIDTH 26 0
BBX 26 27 0 -1
BITMAP
00000000
00000000
00000c00
00000600
00008300
181fd800
0ff0ec00
0700c600
0001c000
00018000
00018000
00030000
00070000
00060000
000c0000
001c0000
003b0000
00618000
00c0c000
01806000
07007000
1c003800
70003000
00000000
00000000
00000000
00000000
ENDCHAR
STARTCHAR 2262
ENCODING 8802
SWIDTH 962 0
DWIDTH 26 0
BBX 26 27 0 -1
BITMAP
00000000
00000000
00000000
03000000
01c00000
01800000
01800000
01802000
0183f000
21be3800
3fe07000
19806000
0180c000
01818000
01860000
01800000
01800000
01800000
01800000
01c02000
00ffe000
007fc000
00000000
00000000
00000000
00000000
00000000
ENDCHAR
STARTCHAR 2263
ENCODING 8803
SWIDTH 962 0
DWIDTH 26 0
BBX 26 27 0 -1
BITMAP
00000000
00000000
00001800
06000c00
03806600
03003000
03001800
03004000
0307e000
437c7000
7fc0e000
3300c000
03018000
03030000
030c0000
03000000
03000000
03000000
03000000
03804000
01ffc000
00ff8000
00000000
00000000
00000000
00000000
00000000
ENDCHAR
STARTCHAR 2264
ENCODING 8804
SWIDTH 962 0
DWIDTH 26 0
BBX 26 27 0 -1
BITMAP
00000000
00000000
00000000
00000000
1000e000
08003000
0c003800
06003000
07003000
03007000
03806000
03006000
0000c000
0000c000
0000c000
00018000
00018000
00030000
00060000
000c0000
00180000
00700000
03c00000
00000000
00000000
00000000
00000000
ENDCHAR
STARTCHAR 2265
ENCODING 8805
SWIDTH 962 0
DWIDTH 26 0
BBX 26 27 0 -1
BITMAP
00000000
00000000
00000c00
00000600
40038300
2000d800
3000ec00
1800c600
1c00c000
0c00c000
0e01c000
0c018000
00018000
00038000
00030000
00060000
00060000
000c0000
00180000
00300000
00600000
01c00000
0f000000
00000000
00000000
00000000
00000000
ENDCHAR
STARTCHAR 2266
ENCODING 8806
SWIDTH 962 0
DWIDTH 26 0
BBX 26 27 0 -1
BITMAP
00000000
00000000
00000000
00c00000
00600000
00e00000
00c04000
0187e000
01fc7000
03006000
06006000
0e00c000
19c0c000
30718000
001b8000
000f0000
000f0000
00198000
0031c000
00608000
01c00000
03000000
1c000000
00000000
00000000
00000000
00000000
ENDCHAR
STARTCHAR 2267
ENCODING 8807
SWIDTH 962 0
DWIDTH 26 0
BBX 26 27 0 -1
BITMAP
00000000
00000000
00000c00
01800600
00c03300
01c01800
01808c00
030fc000
03f8e000
0600c000
0c00c000
1c01c000
33818000
60e38000
00330000
001f0000
000e0000
001f0000
003b8000
00610000
01c00000
07000000
3c000000
00000000
00000000
00000000
00000000
ENDCHAR
STARTCHAR 2268
ENCODING 8808
SWIDTH 962 0
DWIDTH 26 0
BBX 26 27 0 -1
BITMAP
00000000
00000000
00000000
0000c000
00007000
0007e000
003f8000
0fe80000
000c0000
000c0000
000c3000
600ff800
3ffc0c00
1c0c0000
001c0000
00180000
00180000
00380000
00300000
00700000
00e00000
01800000
07000000
00000000
00000000
00000000
00000000
ENDCHAR
STARTCHAR 2269
ENCODING 8809
SWIDTH 962 0
DWIDTH 26 0
BBX 26 27 0 -1
BITMAP
00000000
00000000
00000c00
00018600
0000c300
000fd800
007f0c00
1fd00600
00180000
00180000
00186000
401ff000
7ff81800
38180000
00380000
00300000
00300000
00300000
00600000
00e00000
01800000
03000000
0e000000
00000000
00000000
00000000
00000000
ENDCHAR
STARTCHAR 226a
ENCODING 8810
SWIDTH 962 0
DWIDTH 26 0
BBX 26 27 0 -1
BITMAP
00000000
00000000
00000000
00000000
00000000
00000000
00000000
00000000
00400000
0020c000
08306000
04307000
06186000
03186000
0300c000
0300c000
0000c000
00018000
00030000
00060000
000c0000
00380000
01e00000
00000000
00000000
00000000
00000000
ENDCHAR
STARTCHAR 226b
ENCODING 8811
SWIDTH 962 0
DWIDTH 26 0
BBX 26 27 0 -1
BITMAP
00000000
00000000
00000000
00000000
00800000
0040e000
20603000
10603800
18303000
0c383000
0c303000
06007000
06006000
00006000
0000c000
0000c000
00018000
00030000
00060000
000c0000
00380000
00e00000
03800000
00000000
00000000
00000000
00000000
ENDCHAR
STARTCHAR 226c
ENCODING 8812
SWIDTH 962 0
DWIDTH 26 0
BBX 26 27 0 -1
BITMAP
00000000
00000000
00000c00
00000600
01000300
00801800
40c00c00
20c1c600
30606000
18607000
18606000
0c00e000
0c00c000
0000c000
00018000
00018000
00030000
00060000
000c0000
00180000
00700000
01c00000
07000000
00000000
00000000
00000000
00000000
ENDCHAR
STARTCHAR 226d
ENCODING 8813
SWIDTH 962 0
DWIDTH 26 0
BBX 26 27 0 -1
BITMAP
00000000
00000000
00000000
00008000
040fc000
07f86000
03000000
00000000
00000000
00003000
600ff800
3ff80c00
1c0e0000
000c0000
000c0000
000c0000
00180000
00180000
00300000
00300000
00600000
01c00000
07000000
00000000
00000000
00000000
00000000
ENDCHAR
STARTCHAR 226e
ENCODING 8814
SWIDTH 962 0
DWIDTH 26 0
BBX 26 27 0 -1
BITMAP
00000000
00000000
00000c00
00010600
081f8300
0ff01800
06000c00
00000600
00000000
00006000
401ff000
7ff00000
381c0000
00180000
00180000
00180000
00300000
00300000
00600000
00600000
00c00000
03800000
0e000000
00000000
00000000
00000000
00000000
ENDCHAR
STARTCHAR 226f
ENCODING 8815
SWIDTH 962 0
DWIDTH 26 0
BBX 26 27 0 -1
BITMAP
00000000
00000000
00000000
01800000
00c00000
00e00000
00c00000
00c00000
00c00000
00c00000
00f80000
00ce0000
00c38000
00c1c000
00c0e000
00c04000
00c00000
00c00000
00c00000
00c00000
00c00000
01c00000
00c00000
00000000
00000000
00000000
00000000
ENDCHAR
STARTCHAR 2270
ENCODING 8816
SWIDTH 962 0
DWIDTH 26 0
BBX 26 27 0 -1
BITMAP
00000000
00000000
00000000
01803000
00c01800
00e18c00
00c0c000
00c06000
00c00000
00c00000
00f80000
00ce0000
00c38000
00c1c000
00c0e000
00c04000
00c00000
00c00000
00c00000
00c00000
00c00000
01c00000
00c00000
00000000
00000000
00000000
00000000
ENDCHAR
STARTCHAR 2271
ENCODING 8817
SWIDTH 962 0
DWIDTH 26 0
BBX 26 27 0 -1
BITMAP
00000000
00000000
00000000
00180000
000c0000
000e0000
000c0000
000c0000
000c1800
600ffc00
3ffc0600
1c0c0000
000c0000
001c0000
00180000
00180000
00180000
00300000
00300000
00600000
00c00000
03800000
0e000000
00000000
00000000
00000000
00000000
ENDCHAR
STARTCHAR 2272
ENCODING 8818
SWIDTH 962 0
DWIDTH 26 0
BBX 26 27 0 -1
BITMAP
00000000
00000000
00000000
00000000
00000000
00000000
00004000
0807e000
0ffc3000
07000000
00000000
00000000
00000000
00000000
00000000
00000000
00000000
00006000
3007f800
1ffc0c00
0e000000
00000000
00000000
00000000
00000000
00000000
00000000
ENDCHAR
STARTCHAR 2273
ENCODING 8819
SWIDTH 962 0
DWIDTH 26 0
BBX 26 27 0 -1
BITMAP
00000000
00000000
00000000
00000000
00008000
0c0fc000
07f8e000
0300c000
0001c000
00018000
00018000
03838000
00e30000
003a0000
000e0000
000f0000
001dc000
0030e000
00607000
00c02000
03800000
07000000
3c000000
00000000
00000000
00000000
00000000
ENDCHAR
STARTCHAR 2274
ENCODING 8820
SWIDTH 962 0
DWIDTH 26 0
BBX 26 27 0 -1
BITMAP
00000000
00000000
00000000
00f00000
001e0000
00060000
00000000
0000c000
0c1fe000
07f0c000
03018000
00030000
00060000
000c0000
0018c000
007c6000
01cc3000
070c1800
3c0c0c00
000c0000
000c0000
001c0000
000c0000
00000000
00000000
00000000
00000000
ENDCHAR
STARTCHAR 2275
ENCODING 8821
SWIDTH 962 0
DWIDTH 26 0
BBX 26 27 0 -1
BITMAP
00000000
00000000
00000000
00000000
00038000
0000c000
0000e000
0000c000
0001c000
00018000
00018000
00030000
00030000
00060000
000c0000
000c0000
00180000
00300000
00600000
01c00000
03000000
3e000000
00000000
00000000
00000000
00000000
00000000
ENDCHAR
STARTCHAR 2276
ENCODING 8822
SWIDTH 962 0
DWIDTH 26 0
BBX 26 27 0 -1
BITMAP
00000000
00000000
00000000
00000000
00000000
00000000
01840000
00c20000
00e10000
00c18000
00c0c000
01c0c000
01806000
01803000
03003000
03003800
06001800
06001c00
0c000c00
18000c00
20000000
00000000
00000000
00000000
00000000
00000000
00000000
ENDCHAR
STARTCHAR 2277
ENCODING 8823
SWIDTH 962 0
DWIDTH 26 0
BBX 26 27 0 -1
BITMAP
00000000
00000000
00000000
00003000
00001800
00000c00
01846000
00c23000
00e11800
00c18000
00c08000
01c0c000
01806000
01806000
03003000
03003000
06003000
06001800
0c001800
18001800
20000000
00000000
00000000
00000000
00000000
00000000
00000000
ENDCHAR
STARTCHAR 2278
ENCODING 8824
SWIDTH 962 0
DWIDTH 26 0
BBX 26 27 0 -1
BITMAP
00000000
00000000
00000000
00003800
00004400
00004400
03084400
01843800
01c20000
01830000
01810000
03818000
0300c000
0300c000
06006000
06006000
0c006000
0c003000
18003000
30003000
40000000
00000000
00000000
00000000
00000000
00000000
00000000
ENDCHAR
STARTCHAR 2279
ENCODING 8825
SWIDTH 962 0
DWIDTH 26 0
BBX 26 27 0 -1
BITMAP
00000000
00000000
00000000
0c000000
06000000
07000000
06000000
06004000
0600e000
0601c000
06070000
063c0000
07e00000
06000000
06000000
06000000
06000000
06000000
06000000
06004000
03ffe000
01ffc000
00000000
00000000
00000000
00000000
00000000
ENDCHAR
STARTCHAR 227a
ENCODING 8826
SWIDTH 962 0
DWIDTH 26 0
BBX 26 27 0 -1
BITMAP
00000000
00000000
00000000
0c001800
06000c00
07006600
06003000
06021800
06038000
06070000
061e0000
06780000
07c00000
06000000
06000000
06000000
06000000
06000000
06000000
06004000
03ffe000
01ffc000
00000000
00000000
00000000
00000000
00000000
ENDCHAR
STARTCHAR 227b
ENCODING 8827
SWIDTH 962 0
DWIDTH 26 0
BBX 26 27 0 -1
BITMAP
00000000
00000000
00000000
0c003800
06004400
07004400
06004400
06023800
06038000
06070000
061e0000
06780000
07c00000
06000000
06000000
06000000
06000000
06000000
06000000
06004000
03ffe000
01ffc000
00000000
00000000
00000000
00000000
00000000
ENDCHAR
STARTCHAR 227c
ENCODING 8828
SWIDTH 962 0
DWIDTH 26 0
BBX 26 27 0 -1
BITMAP
00000000
00000000
00000000
00000000
00000000
00003000
300ff800
1ff83800
0e003000
00003000
00007000
00006000
00006000
0000c000
00018000
00018000
00030000
00060000
000c0000
00180000
00700000
00c00000
07800000
00000000
00000000
00000000
00000000
ENDCHAR
STARTCHAR 227d
ENCODING 8829
SWIDTH 962 0
DWIDTH 26 0
BBX 26 27 0 -1
BITMAP
00000000
00000000
00000c00
00000600
00000300
00009800
403fcc00
7fe0e600
3800c000
0000c000
0001c000
00018000
00018000
00030000
00030000
00060000
000c0000
00180000
00300000
00600000
01c00000
07000000
1c000000
00000000
00000000
00000000
00000000
ENDCHAR
STARTCHAR 227e
ENCODING 8830
SWIDTH 962 0
DWIDTH 26 0
BBX 26 27 0 -1
BITMAP
00000000
00000000
00000e00
00001100
00001100
00009100
403fce00
7fe0e000
3800c000
0000c000
0001c000
00018000
00038000
00030000
00070000
00060000
000c0000
00180000
00300000
00600000
00c00000
03800000
0e000000
00000000
00000000
00000000
00000000
ENDCHAR
STARTCHAR 2321
ENCODING 8993
SWIDTH 962 0
DWIDTH 26 0
BBX 26 27 0 -1
BITMAP
00000000
00000000
00000000
00000000
00000000
00000000
00600000
00900000
01980000
01080000
030c0000
06040000
06060000
4c030000
78018000
3000c000
00006000
00003000
00003c00
00001c00
00000800
00000000
00000000
00000000
00000000
00000000
00000000
ENDCHAR
STARTCHAR 2322
ENCODING 8994
SWIDTH 962 0
DWIDTH 26 0
BBX 26 27 0 -1
BITMAP
00000000
00000000
00000000
00000000
00003000
00001800
00618c00
0090c000
01986000
01080000
030c0000
06040000
06060000
4c030000
78018000
3000c000
00006000
00003000
00003c00
00001c00
00000800
00000000
00000000
00000000
00000000
00000000
00000000
ENDCHAR
STARTCHAR 2323
ENCODING 8995
SWIDTH 962 0
DWIDTH 26 0
BBX 26 27 0 -1
BITMAP
00000000
00000000
00000000
00000000
00003800
00004400
00604400
00904400
01983800
01080000
030c0000
02040000
06060000
4c030000
78018000
3000c000
00006000
00003000
00003c00
00001c00
00000800
00000000
00000000
00000000
00000000
00000000
00000000
ENDCHAR
STARTCHAR 2324
ENCODING 8996
SWIDTH 962 0
DWIDTH 26 0
BBX 26 27 0 -1
BITMAP
00000000
00000000
00000000
00180000
000e0000
000c0000
000c0000
000c1000
100ff800
1ffc0c00
0e0c0000
000c0000
000c0000
000c4000
010c6000
030c3000
060c1800
0c0c1800
380c0c00
308c0c00
004c0000
003c0000
00180000
00000000
00000000
00000000
00000000
ENDCHAR
STARTCHAR 2325
ENCODING 8997
SWIDTH 962 0
DWIDTH 26 0
BBX 26 27 0 -1
BITMAP
00000000
00000000
00000c00
00300600
001c3300
00181800
00180c00
00184000
201fe000
3ff83000
1c180000
00180000
00180000
00188000
0218c000
06186000
0c186000
18183000
70183800
61181000
00980000
00780000
00300000
00000000
00000000
00000000
00000000
ENDCHAR
STARTCHAR 2326
ENCODING 8998
SWIDTH 962 0
DWIDTH 26 0
BBX 26 27 0 -1
BITMAP
00000000
00000000
00001c00
00302200
001c2200
00182200
00181c00
00184000
201fe000
3ff83000
1c180000
00180000
00180000
00188000
0218c000
06186000
0c183000
18183000
70181800
61181800
00980000
00780000
00300000
00000000
00000000
00000000
00000000
ENDCHAR
STARTCHAR 2327
ENCODING 8999
SWIDTH 962 0
DWIDTH 26 0
BBX 26 27 0 -1
BITMAP
00000000
00000000
00000000
00000000
00000000
00001000
200ff800
3ff01c00
1e001800
00003800
00003000
00006000
0000c000
07018000
01c30000
00660000
003c0000
001c0000
000e0000
00070000
00038000
00030000
00000000
00000000
00000000
00000000
00000000
ENDCHAR
STARTCHAR 2328
ENCODING 9000
SWIDTH 962 0
DWIDTH 26 0
BBX 26 27 0 -1
BITMAP
00000000
00000000
00000000
00000000
07c00000
007c0000
001f0000
0003c000
0000e000
00006000
03c00000
00780000
001e0000
00078000
0001c000
0000c000
00000000
0fc00000
00fc0000
001f8000
0003e000
0000f000
00003000
00000000
00000000
00000000
00000000
ENDCHAR
STARTCHAR 2329
ENCODING 9001
SWIDTH 962 0
DWIDTH 26 0
BBX 26 27 0 -1
BITMAP
00000000
00000000
00000000
00000000
00600000
00300000
00380000
00300000
00700000
00600000
00600000
00c00000
00c00000
00c08000
01804000
01806000
03003000
02003000
0601f800
243f1800
3ff00c00
1f000c00
00000800
00000000
00000000
00000000
00000000
ENDCHAR
STARTCHAR 232a
ENCODING 9002
SWIDTH 962 0
DWIDTH 26 0
BBX 26 27 0 -1
BITMAP
00000000
00000000
00000000
00000000
0000c000
00006000
00007000
00006000
0000e000
0380c000
00e0c000
00398000
000d8000
00070000
00038000
0007c000
000ce000
00187000
00303000
00603000
01c00000
07000000
1c000000
00000000
00000000
00000000
00000000
ENDCHAR
STARTCHAR 232b
ENCODING 9003
SWIDTH 962 0
DWIDTH 26 0
BBX 26 27 0 -1
BITMAP
00000000
00000000
00000000
00000000
00004000
0807e000
0ffc3000
06600000
00600000
00600000
00603000
2063f800
3ffe0c00
1c600000
00600000
00600000
00600000
00600000
00600000
00602000
003ff000
001fe000
00000000
00000000
00000000
00000000
00000000
ENDCHAR
STARTCHAR 232c
ENCODING 9004
SWIDTH 962 0
DWIDTH 26 0
BBX 26 27 0 -1
BITMAP
00000000
00000000
00000000
00000000
00000000
00000000
00000000
00000000
00c00000
00600000
00602000
0067f000
087c6000
07a06000
0230c000
00318000
00320000
00300000
00180000
00180000
00180000
00180000
00180000
00000000
00000000
00000000
00000000
ENDCHAR
STARTCHAR 232d
ENCODING 9005
SWIDTH 962 0
DWIDTH 26 0
BBX 26 27 0 -1
BITMAP
00000000
00000000
00000000
03000000
01800000
01c00000
01800000
01801000
0187f800
40fc1c00
7fc03800
30c03000
00c06000
0060c000
00618000
00630000
00600000
00600000
00300000
00300000
00300000
00380000
00300000
00000000
00000000
00000000
00000000
ENDCHAR
STARTCHAR 232e
ENCODING 9006
SWIDTH 962 0
DWIDTH 26 0
BBX 26 27 0 -1
BITMAP
00000000
00000000
00000000
00000000
00000000
00000000
00000000
00000000
00000000
00000000
00000000
04020000
03ff0000
01038000
00030000
00030000
00030000
00060000
00060000
00064000
080fe000
07f83000
02000000
00000000
00000000
00000000
00000000
ENDCHAR
STARTCHAR 232f
ENCODING 9007
SWIDTH 962 0
DWIDTH 26 0
BBX 26 27 0 -1
BITMAP
00000000
00000000
00000000
00000000
00000000
00000000
00010000
041f8000
07f1c000
03018000
00018000
00018000
00018000
00038000
00030000
00030000
00030800
6003fc00
3ffe0600
1c000000
00000000
00000000
00000000
00000000
00000000
00000000
00000000
ENDCHAR
STARTCHAR 2330
ENCODING 9008
SWIDTH 962 0
DWIDTH 26 0
BBX 26 27 0 -1
BITMAP
00000000
00000000
00000000
00000000
00000000
00000000
00000000
00000000
00000000
02010000
01ff8000
0081c000
00018000
00018000
01018000
00ff8000
00418000
00030000
00030000
00030000
04030000
03ffc000
01000000
00000000
00000000
00000000
00000000
ENDCHAR
STARTCHAR 2331
ENCODING 9009
SWIDTH 962 0
DWIDTH 26 0
BBX 26 27 0 -1
BITMAP
00000000
00000000
00000000
00000000
00000000
00004000
080fe000
0ff87000
06006000
00006000
00006000
00006000
040fe000
07f86000
0300e000
0000c000
0000c000
0000c000
0000c000
101fc000
1ff0c000
0e00c000
00000000
00000000
00000000
00000000
00000000
ENDCHAR
STARTCHAR 2332
ENCODING 9010
SWIDTH 962 0
DWIDTH 26 0
BBX 26 27 0 -1
BITMAP
00000000
00000000
00000000
00008000
081fc000
0ff06000
06000000
00000000
00001000
603ff800
3fe01c00
1c001800
00003800
00003000
00006000
00006000
0000c000
00018000
00030000
00060000
001c0000
00700000
03c00000
00000000
00000000
00000000
00000000
ENDCHAR
STARTCHAR 2333
ENCODING 9011
SWIDTH 962 0
DWIDTH 26 0
BBX 26 27 0 -1
BITMAP
00000000
00000000
00000000
00018000
0600c000
0300e000
0380c000
0300c000
0300c000
0300c000
0300c000
0300c000
0300c000
0301c000
07018000
03018000
00018000
00030000
00030000
00060000
000c0000
00380000
00e00000
00000000
00000000
00000000
00000000
ENDCHAR
STARTCHAR 2334
ENCODING 9012
SWIDTH 962 0
DWIDTH 26 0
BBX 26 27 0 -1
BITMAP
00000000
00000000
00000000
00180000
000c0000
030e0000
018c0000
01cc0000
018c0000
018c0000
018c0000
018c0400
018c0400
018c0c00
030c0800
030c1800
030c1000
030c3000
060c6000
060cc000
0c0f8000
181f0000
200c0000
00000000
00000000
00000000
00000000
ENDCHAR
STARTCHAR 2335
ENCODING 9013
SWIDTH 962 0
DWIDTH 26 0
BBX 26 27 0 -1
BITMAP
00000000
00000000
00000000
03000000
01800000
01c00000
01800000
01800000
01800000
01800400
01800400
01800c00
01800800
01801800
01803000
01806000
0180c000
01818000
01870000
018e0000
01bc0000
03f00000
01c00000
00000000
00000000
00000000
00000000
ENDCHAR
STARTCHAR 2336
ENCODING 9014
SWIDTH 962 0
DWIDTH 26 0
BBX 26 27 0 -1
BITMAP
00000000
00000000
00000000
00000000
00000000
00004000
080fe000
07f87000
04006000
06006000
06006000
06006000
06006000
06006000
0600e000
0600c000
0600c000
0600c000
0600c000
060ff000
0ff82000
06000000
00000000
00000000
00000000
00000000
00000000
ENDCHAR
STARTCHAR 2337
ENCODING 9015
SWIDTH 962 0
DWIDTH 26 0
BBX 26 27 0 -1
BITMAP
00000000
00000000
00000000
00000000
00000000
00000000
00000000
00000000
00004000
081fe000
07f07000
04006000
06006000
06006000
0600c000
0600c000
0000c000
00018000
00018000
00030000
00060000
001c0000
00f00000
00000000
00000000
00000000
00000000
ENDCHAR
STARTCHAR 2338
ENCODING 9016
SWIDTH 962 0
DWIDTH 26 0
BBX 26 27 0 -1
BITMAP
00000000
00000000
00000000
00000000
00002000
100ff000
0ff83800
08003000
0c003000
0c003000
0c007000
0c006000
0e006000
0c00c000
0000c000
00018000
00018000
00030000
00030000
00060000
000c0000
00380000
00e00000
00000000
00000000
00000000
00000000
ENDCHAR
STARTCHAR 2339
ENCODING 9017
SWIDTH 962 0
DWIDTH 26 0
BBX 26 27 0 -1
BITMAP
00000000
00000000
00000000
000c0000
00070000
00060000
00062000
0807f000
0ffe1800
06060000
00060000
02060000
03060000
03060000
03062000
2207f800
3ffe0c00
1c060000
00060000
00060000
00060000
000e0000
00060000
00000000
00000000
00000000
00000000
ENDCHAR
STARTCHAR 233a
ENCODING 9018
SWIDTH 962 0
DWIDTH 26 0
BBX 26 27 0 -1
BITMAP
00000000
00000000
00000000
00000000
00000000
00004000
080fe000
0ff87000
06006000
0000e000
0030c000
00198000
001b0000
001c0000
00180000
00180000
00180000
00180000
00183000
201ffc00
3ff00600
1c000000
00000000
00000000
00000000
00000000
00000000
ENDCHAR
STARTCHAR 233b
ENCODING 9019
SWIDTH 962 0
DWIDTH 26 0
BBX 26 27 0 -1
BITMAP
00000000
00000000
00000000
00000000
00006000
300ff000
1ff83800
0f003800
00003000
00003000
00007000
1807e000
0ffc6000
07006000
0000c000
0000c000
00018000
00030000
00060000
000c0000
00180000
00700000
01c00000
00000000
00000000
00000000
00000000
ENDCHAR
STARTCHAR 233c
ENCODING 9020
SWIDTH 962 0
DWIDTH 26 0
BBX 26 27 0 -1
BITMAP
00000000
00000000
00000000
00000000
18000000
06000000
03000000
01800000
01c01000
00e01000
00c01000
00003000
00002000
00006000
0000c000
00018000
00038000
00070000
001e0000
00780000
11f00000
0f800000
06000000
00000000
00000000
00000000
00000000
ENDCHAR
STARTCHAR 233d
ENCODING 9021
SWIDTH 962 0
DWIDTH 26 0
BBX 26 27 0 -1
BITMAP
00000000
00000000
00000c00
00c00600
00703300
00601800
00608c00
407fc000
3fe0e000
2000c000
3000c000
3001c000
30018000
30018000
38038000
30030000
00030000
00060000
000c0000
00180000
00300000
00e00000
03800000
00000000
00000000
00000000
00000000
ENDCHAR
STARTCHAR 233e
ENCODING 9022
SWIDTH 962 0
DWIDTH 26 0
BBX 26 27 0 -1
BITMAP
00000000
00000000
00000000
00000000
00000000
00000000
00000000
00000000
00300000
00180000
00184000
081be000
07fc7000
02186000
00306000
00306000
00306000
00606000
00606000
00c0c000
0188c000
0307c000
0c018000
00000000
00000000
00000000
00000000
ENDCHAR
STARTCHAR 233f
ENCODING 9023
SWIDTH 962 0
DWIDTH 26 0
BBX 26 27 0 -1
BITMAP
00000000
00000000
00000000
00000000
00000000
00000000
00000000
00000000
01800000
00c00000
00c04000
0187e000
01fc3000
03060000
06060000
08060000
000c0000
000c0000
00180000
00180000
00300000
00600000
01800000
00000000
00000000
00000000
00000000
ENDCHAR
STARTCHAR 2340
ENCODING 9024
SWIDTH 962 0
DWIDTH 26 0
BBX 26 27 0 -1
BITMAP
00000000
00000000
00000000
00180000
003c0000
002c0000
00660000
00460000
00460000
00c30000
00830000
01818000
01018000
01018000
0300c000
03ffc000
06006000
04006000
04006000
0c003000
08003000
08003000
3e00fc00
00000000
00000000
00000000
00000000
ENDCHAR
STARTCHAR 2341
ENCODING 9025
SWIDTH 962 0
DWIDTH 26 0
BBX 26 27 0 -1
BITMAP
00000000
00000000
00000000
1fff8000
06018000
0600c000
06004000
06004000
06000000
06000000
06000000
07fe0000
06038000
0600c000
06006000
06006000
06003000
06003000
06006000
06006000
0600c000
06038000
1ffe0000
00000000
00000000
00000000
00000000
ENDCHAR
STARTCHAR 2342
ENCODING 9026
SWIDTH 962 0
DWIDTH 26 0
BBX 26 27 0 -1
BITMAP
00000000
00000000
00000000
0ffe0000
03038000
0300c000
03006000
03006000
03006000
03006000
0300c000
03018000
03ff0000
0301c000
03006000
03003000
03001800
03001800
03001800
03001800
03003000
0300e000
0fff8000
00000000
00000000
00000000
00000000
ENDCHAR
STARTCHAR 2343
ENCODING 9027
SWIDTH 962 0
DWIDTH 26 0
BBX 26 27 0 -1
BITMAP
00000000
00000000
00000000
0fffe000
03006000
03003000
03001000
03001000
03000000
03000000
03000000
03000000
03000000
03000000
03000000
03000000
03000000
03000000
03000000
03000000
03000000
03000000
0fc00000
00000000
00000000
00000000
00000000
ENDCHAR
STARTCHAR 2344
ENCODING 9028
SWIDTH 962 0
DWIDTH 26 0
BBX 26 27 0 -1
BITMAP
00000000
00000000
00000000
01ffe000
0080c000
0080c000
0080c000
0080c000
0080c000
0080c000
0180c000
0100c000
0100c000
0100c000
0100c000
0300c000
0200c000
0200c000
0200c000
0600c000
0400c000
0400c000
3ffff800
30001800
20000800
00000000
00000000
ENDCHAR
STARTCHAR 2345
ENCODING 9029
SWIDTH 962 0
DWIDTH 26 0
BBX 26 27 0 -1
BITMAP
00000000
00000000
00000000
0fffe000
0300e000
03006000
03002000
03002000
03000000
03020000
03020000
03060000
03fe0000
03060000
03020000
03020000
03000000
03000000
03002000
03002000
03006000
0300e000
0fffe000
00000000
00000000
00000000
00000000
ENDCHAR
STARTCHAR 2346
ENCODING 9030
SWIDTH 962 0
DWIDTH 26 0
BBX 26 27 0 -1
BITMAP
00000000
00c30000
00c30000
00000000
0fffe000
0300e000
03006000
03002000
03002000
03020000
03020000
03060000
03fe0000
03060000
03020000
03020000
03000000
03000000
03002000
03002000
03006000
0300e000
0fffe000
00000000
00000000
00000000
00000000
ENDCHAR
STARTCHAR 2347
ENCODING 9031
SWIDTH 962 0
DWIDTH 26 0
BBX 26 27 0 -1
BITMAP
00000000
00000000
00000000
1c7e3800
3e187c00
1a185800
02184000
02184000
0318c000
01188000
01188000
01998000
00ff0000
01998000
0318c000
0318c000
06186000
06186000
0c183000
0c181800
18181800
30180c00
fc7e3f00
00000000
00000000
00000000
00000000
ENDCHAR
STARTCHAR 2348
ENCODING 9032
SWIDTH 962 0
DWIDTH 26 0
BBX 26 27 0 -1
BITMAP
00000000
00000000
00000000
00ff0000
0381c000
07006000
06006000
04003000
00003000
00006000
00006000
0000c000
007f8000
0000e000
00003000
00003000
00001800
08001800
0c001800
0e003000
0f003000
0380e000
00ff8000
00000000
00000000
00000000
00000000
ENDCHAR
STARTCHAR 2349
ENCODING 9033
SWIDTH 962 0
DWIDTH 26 0
BBX 26 27 0 -1
BITMAP
00000000
00000000
00000000
1f81f800
06006000
06006000
06006000
0600e000
06016000
06026000
06046000
06046000
06086000
06106000
06206000
06206000
06406000
06806000
07006000
06006000
06006000
06006000
1f81f800
00000000
00000000
00000000
00000000
ENDCHAR
STARTCHAR 234a
ENCODING 9034
SWIDTH 962 0
DWIDTH 26 0
BBX 26 27 0 -1
BITMAP
00000000
00c30000
00c30000
00420000
1f3cf800
06006000
06006000
0600e000
06016000
06026000
06046000
06046000
06086000
06106000
06206000
06206000
06406000
06806000
07006000
06006000
06006000
06006000
1f81f800
00000000
00000000
00000000
00000000
ENDCHAR
STARTCHAR 234b
ENCODING 9035
SWIDTH 962 0
DWIDTH 26 0
BBX 26 27 0 -1
BITMAP
00000000
00000000
00000000
1f80e000
06013000
06023800
06023800
06041000
06040000
060c0000
06080000
06180000
07f00000
06180000
060c0000
06060000
06060000
06030000
06018000
06018000
0600c000
06006000
1f81f800
00000000
00000000
00000000
00000000
ENDCHAR
STARTCHAR 234c
ENCODING 9036
SWIDTH 962 0
DWIDTH 26 0
BBX 26 27 0 -1
BITMAP
00000000
00000000
00000000
01fff000
0040c000
0040c000
0040c000
0040c000
0040c000
0040c000
0040c000
0040c000
0040c000
0040c000
0040c000
00c0c000
0080c000
0080c000
1080c000
3880c000
3880c000
3100c000
1e03f000
00000000
00000000
00000000
00000000
ENDCHAR
STARTCHAR 234d
ENCODING 9037
SWIDTH 962 0
DWIDTH 26 0
BBX 26 27 0 -1
BITMAP
00000000
00000000
00000000
1e00f000
0600c000
0700c000
0701e000
05816000
0d816000
09816000
09833000
09c23000
08c23000
18c23000
10c63800
10e41800
10641800
106c1800
30781c00
20380c00
20300c00
20100c00
f8003f00
00000000
00000000
00000000
00000000
ENDCHAR
STARTCHAR 234e
ENCODING 9038
SWIDTH 962 0
DWIDTH 26 0
BBX 26 27 0 -1
BITMAP
00000000
00000000
00000000
1f81f800
06006000
06006000
06006000
06006000
06006000
06006000
06006000
06006000
07ffe000
06006000
06006000
06006000
06006000
06006000
06006000
06006000
06006000
06006000
1f81f800
00000000
00000000
00000000
00000000
ENDCHAR
STARTCHAR 234f
ENCODING 9039
SWIDTH 962 0
DWIDTH 26 0
BBX 26 27 0 -1
BITMAP
00000000
00000000
00000000
00ff0000
0381c000
06006000
0e007000
0c003000
0c003000
1c003800
18001800
18001800
18001800
18001800
18001800
18001800
18001800
1c003800
0c003000
0e007000
06006000
0381c000
00ff0000
00000000
00000000
00000000
00000000
ENDCHAR
STARTCHAR 2350
ENCODING 9040
SWIDTH 962 0
DWIDTH 26 0
BBX 26 27 0 -1
BITMAP
00000000
00000000
00000000
1ffff800
06006000
06006000
06006000
06006000
06006000
06006000
06006000
06006000
06006000
06006000
06006000
06006000
06006000
06006000
06006000
06006000
06006000
06006000
1f81f800
00000000
00000000
00000000
00000000
ENDCHAR
STARTCHAR 2351
ENCODING 9041
SWIDTH 962 0
DWIDTH 26 0
BBX 26 27 0 -1
BITMAP
00000000
00000000
00000000
0fff0000
0301c000
03006000
03006000
03003000
03003000
03003000
03006000
03006000
0301c000
03ff0000
03000000
03000000
03000000
03000000
03000000
03000000
03000000
03000000
0fc00000
00000000
00000000
00000000
00000000
ENDCHAR
STARTCHAR 2352
ENCODING 9042
SWIDTH 962 0
DWIDTH 26 0
BBX 26 27 0 -1
BITMAP
00000000
00000000
00000000
00ff0000
0381c000
06007000
06003000
0c003000
0c001000
1c000000
18000000
18000000
18000000
18000000
18000000
18000000
1c000000
0c001000
0e003000
06003000
03007000
0181c000
00ff0000
00000000
00000000
00000000
00000000
ENDCHAR
STARTCHAR 2353
ENCODING 9043
SWIDTH 962 0
DWIDTH 26 0
BBX 26 27 0 -1
BITMAP
00000000
00000000
00000000
0ffff000
0e187000
0c183000
08181000
08181000
00180000
00180000
00180000
00180000
00180000
00180000
00180000
00180000
00180000
00180000
00180000
00180000
00180000
00180000
007e0000
00000000
00000000
00000000
00000000
ENDCHAR
STARTCHAR 2354
ENCODING 9044
SWIDTH 962 0
DWIDTH 26 0
BBX 26 27 0 -1
BITMAP
00000000
00000000
00000000
3f00fc00
0c003000
0c002000
06002000
07006000
03004000
0380c000
01808000
01c18000
00c10000
00e30000
00620000
00760000
00340000
0c3c0000
1e180000
1e180000
1c300000
0c600000
07c00000
00000000
00000000
00000000
00000000
ENDCHAR
STARTCHAR 2355
ENCODING 9045
SWIDTH 962 0
DWIDTH 26 0
BBX 26 27 0 -1
BITMAP
00000000
00000000
00000000
007e0000
00180000
00180000
00ff0000
0799e000
0c183000
18181800
18181800
38181c00
30180c00
30180c00
38181c00
18181800
18181800
0c183000
0799e000
00ff0000
00180000
00180000
007e0000
00000000
00000000
00000000
00000000
ENDCHAR
STARTCHAR 2356
ENCODING 9046
SWIDTH 962 0
DWIDTH 26 0
BBX 26 27 0 -1
BITMAP
00000000
00000000
00000000
3f80f800
07002000
03006000
0380c000
01c08000
00c18000
00e10000
00720000
00340000
00380000
003c0000
006c0000
004e0000
01870000
01038000
02018000
0601c000
0400e000
0c007000
3f01fc00
00000000
00000000
00000000
00000000
ENDCHAR
STARTCHAR 2357
ENCODING 9047
SWIDTH 962 0
DWIDTH 26 0
BBX 26 27 0 -1
BITMAP
00000000
00000000
00000000
1f83f000
0600c000
0600c000
0600c000
0600c000
0600c000
0600c000
0600c000
0600c000
0600c000
0600c000
0600c000
0600c000
0600c000
0600c000
0600c000
0600c000
0600c000
0600c000
1ffff800
00001800
00000800
00000000
00000000
ENDCHAR
STARTCHAR 2358
ENCODING 9048
SWIDTH 962 0
DWIDTH 26 0
BBX 26 27 0 -1
BITMAP
00000000
00000000
00000000
1f83f000
0600c000
0600c000
0600c000
0600c000
0600c000
0600c000
0600c000
0600c000
0600c000
0600c000
0300c000
0301c000
0187c000
00fcc000
0000c000
0000c000
0000c000
0000c000
0003f000
00000000
00000000
00000000
00000000
ENDCHAR
STARTCHAR 2359
ENCODING 9049
SWIDTH 962 0
DWIDTH 26 0
BBX 26 27 0 -1
BITMAP
00000000
00000000
00000000
7c7e3e00
18181800
18181800
18181800
18181800
18181800
18181800
18181800
18181800
18181800
18181800
18181800
18181800
18181800
18181800
18181800
18181800
18181800
18181800
7ffffe00
00000000
00000000
00000000
00000000
ENDCHAR
STARTCHAR 235a
ENCODING 9050
SWIDTH 962 0
DWIDTH 26 0
BBX 26 27 0 -1
BITMAP
00000000
00000000
00000000
7c7e3e00
18181800
18181800
18181800
18181800
18181800
18181800
18181800
18181800
18181800
18181800
18181800
18181800
18181800
18181800
18181800
18181800
18181800
18181800
ffffff00
00000300
00000100
00000000
00000000
ENDCHAR
STARTCHAR 235b
ENCODING 9051
SWIDTH 962 0
DWIDTH 26 0
BBX 26 27 0 -1
BITMAP
00000000
00000000
00000000
3ff00000
30c00000
60c00000
40c00000
40c00000
00c00000
00c00000
00c00000
00ffc000
00c07000
00c03000
00c01800
00c01800
00c01c00
00c01c00
00c01800
00c03800
00c03000
00c0e000
03ff8000
00000000
00000000
00000000
00000000
ENDCHAR
STARTCHAR 235c
ENCODING 9052
SWIDTH 962 0
DWIDTH 26 0
BBX 26 27 0 -1
BITMAP
00000000
00000000
00000000
7e007e00
18001800
18001800
18001800
18001800
18001800
18001800
18001800
1ff81800
180c1800
18061800
18061800
18031800
18031800
18031800
18031800
18061800
18061800
180c1800
7ff87e00
00000000
00000000
00000000
00000000
ENDCHAR
STARTCHAR 235d
ENCODING 9053
SWIDTH 962 0
DWIDTH 26 0
BBX 26 27 0 -1
BITMAP
00000000
00000000
00000000
1f800000
06000000
06000000
06000000
06000000
06000000
06000000
06000000
07ff0000
06018000
0600c000
06006000
06006000
06003000
06003000
06006000
06006000
0600c000
06018000
1fff0000
00000000
00000000
00000000
00000000
ENDCHAR
STARTCHAR 235e
ENCODING 9054
SWIDTH 962 0
DWIDTH 26 0
BBX 26 27 0 -1
BITMAP
00000000
00000000
00000000
00ff0000
0381c000
0e00e000
0c006000
0c003000
08003000
00001800
00001800
00781800
008e1800
0103f800
00019800
00001800
00001800
08003000
0c003000
06006000
0200c000
0301c000
01ff0000
00000000
00000000
00000000
00000000
ENDCHAR
STARTCHAR 235f
ENCODING 9055
SWIDTH 962 0
DWIDTH 26 0
BBX 26 27 0 -1
BITMAP
00000000
00000000
00000000
fc0f8000
3038e000
30603000
30e01800
30c01800
30c01800
31c01c00
31800c00
31800c00
3f800c00
31800c00
31800c00
31800c00
31c01c00
30c01800
30c01800
30e03800
30603000
3038e000
fc0f8000
00000000
00000000
00000000
00000000
ENDCHAR
STARTCHAR 2360
ENCODING 9056
SWIDTH 962 0
DWIDTH 26 0
BBX 26 27 0 -1
BITMAP
00000000
00000000
00000000
007ff000
01c0c000
0380c000
0300c000
0700c000
0600c000
0700c000
0300c000
0380c000
01c0c000
007fc000
0030c000
0070c000
0060c000
0060c000
00c0c000
00c0c000
0180c000
0300c000
0203f000
0c000000
00000000
00000000
00000000
ENDCHAR
STARTCHAR 2361
ENCODING 9057
SWIDTH 962 0
DWIDTH 26 0
BBX 26 27 0 -1
BITMAP
00000000
00000000
00000000
00000000
00000000
00000000
00000000
00000000
00000000
00000000
00fc0000
01860000
03c30000
01830000
00030000
003f0000
00e30000
01830000
03030000
03030000
03030000
03072000
01f9c000
00000000
00000000
00000000
00000000
ENDCHAR
STARTCHAR 2362
ENCODING 9058
SWIDTH 962 0
DWIDTH 26 0
BBX 26 27 0 -1
BITMAP
00000000
00000000
00000000
00000000
00010000
007e0000
00fc0000
01800000
01000000
03000000
027e0000
02c30000
03818000
03818000
0300c000
0300c000
0300c000
0300c000
0300c000
01818000
01818000
00c30000
007e0000
00000000
00000000
00000000
00000000
ENDCHAR
STARTCHAR 2363
ENCODING 9059
SWIDTH 962 0
DWIDTH 26 0
BBX 26 27 0 -1
BITMAP
00000000
00000000
00000000
00000000
00000000
00000000
00000000
00000000
00000000
00000000
03fc0000
01860000
01830000
01830000
01830000
01860000
01fc0000
01830000
01818000
01818000
01818000
01830000
03fe0000
00000000
00000000
00000000
00000000
ENDCHAR
STARTCHAR 2364
ENCODING 9060
SWIDTH 962 0
DWIDTH 26 0
BBX 26 27 0 -1
BITMAP
00000000
00000000
00000000
00000000
00000000
00000000
00000000
00000000
00000000
00000000
01ff0000
00c30000
00c18000
00c08000
00c00000
00c00000
00c00000
00c00000
00c00000
00c00000
00c00000
00c00000
01e00000
00000000
00000000
00000000
00000000
ENDCHAR
STARTCHAR 2365
ENCODING 9061
SWIDTH 962 0
DWIDTH 26 0
BBX 26 27 0 -1
BITMAP
00000000
00000000
00000000
00000000
00000000
00000000
00000000
00000000
00000000
00000000
007f8000
00230000
00230000
00230000
00230000
00430000
00430000
00430000
00830000
00830000
00830000
01030000
07ffc000
0600c000
04004000
00000000
00000000
ENDCHAR
STARTCHAR 2366
ENCODING 9062
SWIDTH 962 0
DWIDTH 26 0
BBX 26 27 0 -1
BITMAP
00000000
00000000
00000000
00000000
00000000
00000000
00000000
00000000
00000000
00000000
007e0000
00c30000
01818000
01818000
0300c000
0300c000
03ffc000
03000000
03000000
01800000
01808000
00c10000
007e0000
00000000
00000000
00000000
00000000
ENDCHAR
STARTCHAR 2367
ENCODING 9063
SWIDTH 962 0
DWIDTH 26 0
BBX 26 27 0 -1
BITMAP
00000000
00000000
00000000
00000000
00000000
00000000
00c30000
00c30000
00000000
00000000
007e0000
00c30000
01818000
01818000
0300c000
0300c000
03ffc000
03000000
03000000
01800000
01808000
00c10000
007e0000
00000000
00000000
00000000
00000000
ENDCHAR
STARTCHAR 2368
ENCODING 9064
SWIDTH 962 0
DWIDTH 26 0
BBX 26 27 0 -1
BITMAP
00000000
00000000
00000000
00000000
00000000
00000000
00000000
00000000
00000000
00000000
063c6000
0718e000
01188000
01188000
01998000
00990000
01ff8000
01998000
0318c000
0318c000
06186000
04182000
1f3cf800
00000000
00000000
00000000
00000000
ENDCHAR
STARTCHAR 2369
ENCODING 9065
SWIDTH 962 0
DWIDTH 26 0
BBX 26 27 0 -1
BITMAP
00000000
00000000
00000000
00000000
00000000
00000000
00000000
00000000
00000000
00000000
007e0000
01c30000
01018000
00018000
00018000
00030000
003e0000
00018000
0000c000
0100c000
0180c000
01c18000
007f0000
00000000
00000000
00000000
00000000
ENDCHAR
STARTCHAR 236a
ENCODING 9066
SWIDTH 962 0
DWIDTH 26 0
BBX 26 27 0 -1
BITMAP
00000000
00000000
00000000
00000000
00000000
00000000
00000000
00000000
00000000
00000000
03c3c000
01818000
01818000
01838000
01858000
01898000
01998000
01918000
01a18000
01c18000
01818000
01818000
03c3c000
00000000
00000000
00000000
00000000
ENDCHAR
STARTCHAR 236b
ENCODING 9067
SWIDTH 962 0
DWIDTH 26 0
BBX 26 27 0 -1
BITMAP
00000000
00000000
00000000
00000000
00000000
00000000
00c30000
00c30000
00420000
003c0000
0381c000
01818000
01818000
01838000
01858000
01898000
01998000
01918000
01a18000
01c18000
01818000
01818000
03c3c000
00000000
00000000
00000000
00000000
ENDCHAR
STARTCHAR 236c
ENCODING 9068
SWIDTH 962 0
DWIDTH 26 0
BBX 26 27 0 -1
BITMAP
00000000
00000000
00000000
00000000
00000000
00000000
00000000
00000000
00000000
00000000
01e18000
00c38000
00c20000
00c60000
00c40000
00cc0000
00f80000
00cc0000
00c60000
00c30000
00c18000
00c18000
01e3e000
00000000
00000000
00000000
00000000
ENDCHAR
STARTCHAR 236d
ENCODING 9069
SWIDTH 962 0
DWIDTH 26 0
BBX 26 27 0 -1
BITMAP
00000000
00000000
00000000
00000000
00000000
00000000
00000000
00000000
00000000
00000000
007f8000
00230000
00230000
00230000
00230000
00230000
00230000
00430000
00430000
06430000
06430000
04830000
03078000
00000000
00000000
00000000
00000000
ENDCHAR
STARTCHAR 236e
ENCODING 9070
SWIDTH 962 0
DWIDTH 26 0
BBX 26 27 0 -1
BITMAP
00000000
00000000
00000000
00000000
00000000
00000000
00000000
00000000
00000000
00000000
0700e000
0381c000
0381c000
02c2c000
02c2c000
02c2c000
0264c000
0264c000
0268c000
0238c000
0210c000
0210c000
0701e000
00000000
00000000
00000000
00000000
ENDCHAR
STARTCHAR 236f
ENCODING 9071
SWIDTH 962 0
DWIDTH 26 0
BBX 26 27 0 -1
BITMAP
00000000
00000000
00000000
00000000
00000000
00000000
00000000
00000000
00000000
00000000
03c3c000
01818000
01818000
01818000
01818000
01818000
01ff8000
01818000
01818000
01818000
01818000
01818000
03c3c000
00000000
00000000
00000000
00000000
ENDCHAR
STARTCHAR 2370
ENCODING 9072
SWIDTH 962 0
DWIDTH 26 0
BBX 26 27 0 -1
BITMAP
00000000
00000000
00000000
00000000
00000000
00000000
00000000
00000000
00000000
00000000
007e0000
00c30000
01818000
01818000
0300c000
0300c000
0300c000
0300c000
0300c000
01818000
01818000
00c30000
007e0000
00000000
00000000
00000000
00000000
ENDCHAR
STARTCHAR 2371
ENCODING 9073
SWIDTH 962 0
DWIDTH 26 0
BBX 26 27 0 -1
BITMAP
00000000
00000000
00000000
00000000
00000000
00000000
00000000
00000000
00000000
00000000
03ffc000
01818000
01818000
01818000
01818000
01818000
01818000
01818000
01818000
01818000
01818000
01818000
03c3c000
00000000
00000000
00000000
00000000
ENDCHAR
STARTCHAR 2372
ENCODING 9074
SWIDTH 962 0
DWIDTH 26 0
BBX 26 27 0 -1
BITMAP
00000000
00000000
00000000
00000000
00000000
00000000
00000000
00000000
00000000
00000000
019e0000
03a30000
01c18000
01818000
0180c000
0180c000
0180c000
0180c000
01818000
01c18000
01a30000
019e0000
01800000
01800000
03c00000
00000000
00000000
ENDCHAR
STARTCHAR 2373
ENCODING 9075
SWIDTH 962 0
DWIDTH 26 0
BBX 26 27 0 -1
BITMAP
00000000
00000000
00000000
00000000
00000000
00000000
00000000
00000000
00000000
00000000
007e0000
00c30000
01838000
01838000
03010000
03000000
03000000
03000000
03000000
01800000
01808000
00c10000
007e0000
00000000
00000000
00000000
00000000
ENDCHAR
STARTCHAR 2374
ENCODING 9076
SWIDTH 962 0
DWIDTH 26 0
BBX 26 27 0 -1
BITMAP
00000000
00000000
00000000
00000000
00000000
00000000
00000000
00000000
00000000
00000000
03ffc000
0318c000
06186000
04182000
00180000
00180000
00180000
00180000
00180000
00180000
00180000
00180000
003c0000
00000000
00000000
00000000
00000000
ENDCHAR
STARTCHAR 2375
ENCODING 9077
SWIDTH 962 0
DWIDTH 26 0
BBX 26 27 0 -1
BITMAP
00000000
00000000
00000000
00000000
00000000
00000000
00000000
00000000
00000000
00000000
07c0e000
01804000
01804000
00c08000
00c08000
00610000
00610000
00320000
00320000
001c0000
000c0000
00080000
03880000
03900000
01e00000
00000000
00000000
ENDCHAR
STARTCHAR 2376
ENCODING 9078
SWIDTH 962 0
DWIDTH 26 0
BBX 26 27 0 -1
BITMAP
00000000
00000000
00000000
00080000
00180000
00380000
00180000
00180000
00180000
00180000
0399c000
065a6000
043c2000
0c183000
0c183000
0c183000
0c183000
0c183000
0c183000
043c2000
065a6000
0399c000
00180000
00180000
003c0000
00000000
00000000
ENDCHAR
STARTCHAR 2377
ENCODING 9079
SWIDTH 962 0
DWIDTH 26 0
BBX 26 27 0 -1
BITMAP
00000000
00000000
00000000
00000000
00000000
00000000
00000000
00000000
00000000
00000000
07c3e000
01808000
00c10000
00620000
00340000
00180000
000c0000
00160000
00230000
00418000
0080c000
01006000
07c1f800
00000000
00000000
00000000
00000000
ENDCHAR
STARTCHAR 2378
ENCODING 9080
SWIDTH 962 0
DWIDTH 26 0
BBX 26 27 0 -1
BITMAP
00000000
00000000
00000000
00000000
00000000
00000000
00000000
00000000
00000000
00000000
03c3c000
01818000
01818000
01818000
01818000
01818000
01818000
01818000
01818000
01818000
01818000
01818000
03ffe000
00006000
00002000
00000000
00000000
ENDCHAR
STARTCHAR 2379
ENCODING 9081
SWIDTH 962 0
DWIDTH 26 0
BBX 26 27 0 -1
BITMAP
00000000
00000000
00000000
00000000
00000000
00000000
00000000
00000000
00000000
00000000
03c78000
01830000
01830000
01830000
01830000
01830000
01830000
00c30000
007f0000
00030000
00030000
00030000
00078000
00000000
00000000
00000000
00000000
ENDCHAR
STARTCHAR 237a
ENCODING 9082
SWIDTH 962 0
DWIDTH 26 0
BBX 26 27 0 -1
BITMAP
00000000
00000000
00000000
00000000
00000000
00000000
00000000
00000000
00000000
00000000
0f3cf000
06186000
06186000
06186000
06186000
06186000
06186000
06186000
06186000
06186000
06186000
06186000
0ffff000
00000000
00000000
00000000
00000000
ENDCHAR
STARTCHAR 237b
ENCODING 9083
SWIDTH 962 0
DWIDTH 26 0
BBX 26 27 0 -1
BITMAP
00000000
00000000
00000000
00000000
00000000
00000000
00000000
00000000
00000000
00000000
0f3cf000
06186000
06186000
06186000
06186000
06186000
06186000
06186000
06186000
06186000
06186000
06186000
0ffff800
00001800
00000800
00000000
00000000
ENDCHAR
STARTCHAR 237c
ENCODING 9084
SWIDTH 962 0
DWIDTH 26 0
BBX 26 27 0 -1
BITMAP
00000000
00000000
00000000
00000000
00000000
00000000
00000000
00000000
00000000
00000000
0ff00000
0c600000
18600000
10600000
00600000
007f8000
0060c000
00606000
00606000
00606000
00606000
0060c000
00ff8000
00000000
00000000
00000000
00000000
ENDCHAR
STARTCHAR 237d
ENCODING 9085
SWIDTH 962 0
DWIDTH 26 0
BBX 26 27 0 -1
BITMAP
00000000
00000000
00000000
00000000
00000000
00000000
00000000
00000000
00000000
00000000
0f00f000
06006000
06006000
06006000
06006000
07f86000
060c6000
06066000
06066000
06066000
06066000
060c6000
0ff8f000
00000000
00000000
00000000
00000000
ENDCHAR
STARTCHAR 237e
ENCODING 9086
SWIDTH 962 0
DWIDTH 26 0
BBX 26 27 0 -1
BITMAP
00000000
00000000
00000000
00000000
00000000
00000000
00000000
00000000
00000000
00000000
03c00000
01800000
01800000
01800000
01800000
01fe0000
01830000
01818000
01818000
01818000
01818000
01830000
03fe0000
00000000
00000000
00000000
00000000
ENDCHAR
STARTCHAR 2421
ENCODING 9249
SWIDTH 962 0
DWIDTH 26 0
BBX 26 27 0 -1
BITMAP
00000000
00000000
00000000
00000000
00000000
00000000
00000000
00000000
00000000
00000000
007e0000
01c30000
01818000
01018000
0000c000
0038c000
0047c000
0000c000
0000c000
00018000
01018000
00830000
007e0000
00000000
00000000
00000000
00000000
ENDCHAR
STARTCHAR 2422
ENCODING 9250
SWIDTH 962 0
DWIDTH 26 0
BBX 26 27 0 -1
BITMAP
00000000
00000000
00000000
00000000
00000000
00000000
00000000
00000000
00000000
00000000
0f030000
060cc000
06186000
06186000
06303000
06303000
07f03000
06303000
06303000
06186000
06186000
060cc000
0f030000
00000000
00000000
00000000
00000000
ENDCHAR
STARTCHAR 2423
ENCODING 9251
SWIDTH 962 0
DWIDTH 26 0
BBX 26 27 0 -1
BITMAP
00000000
00000000
00000000
00000000
00000000
00000000
00000000
00000000
00000000
00000000
007fc000
00c18000
01818000
01818000
01818000
00c18000
007f8000
00618000
00c18000
00c18000
01818000
01818000
0783c000
00000000
00000000
00000000
00000000
ENDCHAR
STARTCHAR 2424
ENCODING 9252
SWIDTH 962 0
DWIDTH 26 0
BBX 26 27 0 -1
BITMAP
00000000
00000000
00000000
00000000
00000000
00000000
00000000
00000000
00000000
00000000
00000000
00000000
ffffff00
ffffff00
00000000
00000000
00000000
00000000
00000000
00000000
00000000
00000000
00000000
00000000
00000000
00000000
00000000
ENDCHAR
STARTCHAR 2425
ENCODING 9253
SWIDTH 962 0
DWIDTH 26 0
BBX 26 27 0 -1
BITMAP
00000000
00180000
00180000
00180000
00180000
00180000
00180000
00180000
00180000
00180000
00180000
00180000
00180000
00180000
00180000
00180000
00180000
00180000
00180000
00180000
00180000
00180000
00180000
00180000
00180000
00000000
00000000
ENDCHAR
STARTCHAR 2426
ENCODING 9254
SWIDTH 962 0
DWIDTH 26 0
BBX 26 27 0 -1
BITMAP
00000000
00000000
00000000
00000000
00000000
00000000
00000000
00000000
00000000
00000000
00000000
00000000
001fff00
001fff00
00180000
00180000
00180000
00180000
00180000
00180000
00180000
00180000
00180000
00180000
00180000
00000000
00000000
ENDCHAR
STARTCHAR 2427
ENCODING 9255
SWIDTH 962 0
DWIDTH 26 0
BBX 26 27 0 -1
BITMAP
00000000
00000000
00000000
00000000
00000000
00000000
00000000
00000000
00000000
00000000
00000000
00000000
fff80000
fff80000
00180000
00180000
00180000
00180000
00180000
00180000
00180000
00180000
00180000
00180000
00180000
00000000
00000000
ENDCHAR
STARTCHAR 2428
ENCODING 9256
SWIDTH 962 0
DWIDTH 26 0
BBX 26 27 0 -1
BITMAP
00000000
00180000
00180000
00180000
00180000
00180000
00180000
00180000
00180000
00180000
00180000
00180000
fff80000
fff80000
00000000
00000000
00000000
00000000
00000000
00000000
00000000
00000000
00000000
00000000
00000000
00000000
00000000
ENDCHAR
STARTCHAR 2429
ENCODING 9257
SWIDTH 962 0
DWIDTH 26 0
BBX 26 27 0 -1
BITMAP
00000000
00180000
00180000
00180000
00180000
00180000
00180000
00180000
00180000
00180000
00180000
00180000
001fff00
001fff00
00000000
00000000
00000000
00000000
00000000
00000000
00000000
00000000
00000000
00000000
00000000
00000000
00000000
ENDCHAR
STARTCHAR 242a
ENCODING 9258
SWIDTH 962 0
DWIDTH 26 0
BBX 26 27 0 -1
BITMAP
00000000
00180000
00180000
00180000
00180000
00180000
00180000
00180000
00180000
00180000
00180000
00180000
001fff00
001fff00
00180000
00180000
00180000
00180000
00180000
00180000
00180000
00180000
00180000
00180000
00180000
00000000
00000000
ENDCHAR
STARTCHAR 242b
ENCODING 9259
SWIDTH 962 0
DWIDTH 26 0
BBX 26 27 0 -1
BITMAP
00000000
00000000
00000000
00000000
00000000
00000000
00000000
00000000
00000000
00000000
00000000
00000000
ffffff00
ffffff00
00180000
00180000
00180000
00180000
00180000
00180000
00180000
00180000
00180000
00180000
00180000
00000000
00000000
ENDCHAR
STARTCHAR 242c
ENCODING 9260
SWIDTH 962 0
DWIDTH 26 0
BBX 26 27 0 -1
BITMAP
00000000
00180000
00180000
00180000
00180000
00180000
00180000
00180000
00180000
00180000
00180000
00180000
fff80000
fff80000
00180000
00180000
00180000
00180000
00180000
00180000
00180000
00180000
00180000
00180000
00180000
00000000
00000000
ENDCHAR
STARTCHAR 242d
ENCODING 9261
SWIDTH 962 0
DWIDTH 26 0
BBX 26 27 0 -1
BITMAP
00000000
00180000
00180000
00180000
00180000
00180000
00180000
00180000
00180000
00180000
00180000
00180000
ffffff00
ffffff00
00000000
00000000
00000000
00000000
00000000
00000000
00000000
00000000
00000000
00000000
00000000
00000000
00000000
ENDCHAR
STARTCHAR 242e
ENCODING 9262
SWIDTH 962 0
DWIDTH 26 0
BBX 26 27 0 -1
BITMAP
00000000
00180000
00180000
00180000
00180000
00180000
00180000
00180000
00180000
00180000
00180000
00180000
ffffff00
ffffff00
00180000
00180000
00180000
00180000
00180000
00180000
00180000
00180000
00180000
00180000
00180000
00000000
00000000
ENDCHAR
STARTCHAR 242f
ENCODING 9263
SWIDTH 962 0
DWIDTH 26 0
BBX 26 27 0 -1
BITMAP
00000000
00180000
00180000
00180000
00180000
00180000
00180000
00180000
00180000
00180000
00180000
00180000
001fff00
00180000
00180000
00180000
00180000
00180000
00180000
00180000
00180000
00180000
00180000
00180000
00180000
00000000
00000000
ENDCHAR
STARTCHAR 2430
ENCODING 9264
SWIDTH 962 0
DWIDTH 26 0
BBX 26 27 0 -1
BITMAP
00000000
00000000
00000000
00000000
00000000
00000000
00000000
00000000
00000000
00000000
00000000
00000000
ffffff00
ffffff00
00100000
00100000
00100000
00100000
00100000
00100000
00100000
00100000
00100000
00100000
00100000
00000000
00000000
ENDCHAR
STARTCHAR 2431
ENCODING 9265
SWIDTH 962 0
DWIDTH 26 0
BBX 26 27 0 -1
BITMAP
00000000
00180000
00180000
00180000
00180000
00180000
00180000
00180000
00180000
00180000
00180000
00180000
fff80000
00180000
00180000
00180000
00180000
00180000
00180000
00180000
00180000
00180000
00180000
00180000
00180000
00000000
00000000
ENDCHAR
STARTCHAR 2432
ENCODING 9266
SWIDTH 962 0
DWIDTH 26 0
BBX 26 27 0 -1
BITMAP
00000000
00100000
00100000
00100000
00100000
00100000
00100000
00100000
00100000
00100000
00100000
00100000
ffffff00
ffffff00
00000000
00000000
00000000
00000000
00000000
00000000
00000000
00000000
00000000
00000000
00000000
00000000
00000000
ENDCHAR
STARTCHAR 2433
ENCODING 9267
SWIDTH 962 0
DWIDTH 26 0
BBX 26 27 0 -1
BITMAP
00000000
00100000
00100000
00100000
00100000
00100000
00100000
00100000
00100000
00100000
00100000
00100000
ffffff00
ffffff00
00100000
00100000
00100000
00100000
00100000
00100000
00100000
00100000
00100000
00100000
00100000
00000000
00000000
ENDCHAR
STARTCHAR 2434
ENCODING 9268
SWIDTH 962 0
DWIDTH 26 0
BBX 26 27 0 -1
BITMAP
00000000
00100000
00100000
00100000
00100000
00100000
00100000
00100000
00100000
00100000
00100000
00100000
001fff00
001fff00
00100000
00100000
00100000
00100000
00100000
00100000
00100000
00100000
00100000
00100000
00100000
00000000
00000000
ENDCHAR
STARTCHAR 2435
ENCODING 9269
SWIDTH 962 0
DWIDTH 26 0
BBX 26 27 0 -1
BITMAP
00000000
00000000
00000000
00000000
00000000
00000000
00000000
00000000
00000000
00000000
00000000
00000000
ffffff00
00180000
00180000
00180000
00180000
00180000
00180000
00180000
00180000
00180000
00180000
00180000
00180000
00000000
00000000
ENDCHAR
STARTCHAR 2436
ENCODING 9270
SWIDTH 962 0
DWIDTH 26 0
BBX 26 27 0 -1
BITMAP
00000000
00100000
00100000
00100000
00100000
00100000
00100000
00100000
00100000
00100000
00100000
00100000
fff00000
fff00000
00100000
00100000
00100000
00100000
00100000
00100000
00100000
00100000
00100000
00100000
00100000
00000000
00000000
ENDCHAR
STARTCHAR 2437
ENCODING 9271
SWIDTH 962 0
DWIDTH 26 0
BBX 26 27 0 -1
BITMAP
00000000
00180000
00180000
00180000
00180000
00180000
00180000
00180000
00180000
00180000
00180000
00180000
ffffff00
00000000
00000000
00000000
00000000
00000000
00000000
00000000
00000000
00000000
00000000
00000000
00000000
00000000
00000000
ENDCHAR
STARTCHAR 2438
ENCODING 9272
SWIDTH 962 0
DWIDTH 26 0
BBX 26 27 0 -1
BITMAP
00000000
00180000
00180000
00180000
00180000
00180000
00180000
00180000
00180000
00180000
00180000
00180000
ffffff00
00180000
00180000
00180000
00180000
00180000
00180000
00180000
00180000
00180000
00180000
00180000
00180000
00000000
00000000
ENDCHAR
STARTCHAR 2439
ENCODING 9273
SWIDTH 962 0
DWIDTH 26 0
BBX 26 27 0 -1
BITMAP
00000000
c0000000
c0000000
c0000000
c0000000
c0000000
c0000000
c0000000
c0000000
c0000000
c0000000
c0000000
c0000000
c0000000
c0000000
c0000000
c0000000
c0000000
c0000000
c0000000
c0000000
c0000000
c0000000
c0000000
c0000000
00000000
00000000
ENDCHAR
STARTCHAR 243a
ENCODING 9274
SWIDTH 962 0
DWIDTH 26 0
BBX 26 27 0 -1
BITMAP
00000000
00000000
00000000
00000000
00000000
00000000
00000000
00000000
00000000
00000000
07efc000
07efc000
00000000
00000000
00000000
00000000
00000000
00000000
00000000
00000000
00000000
00000000
00000000
00000000
00000000
00000000
00000000
ENDCHAR
STARTCHAR 243b
ENCODING 9275
SWIDTH 962 0
DWIDTH 26 0
BBX 26 27 0 -1
BITMAP
00000000
c0000000
60000000
30000000
18000000
30000000
60000000
c0000000
60000000
30000000
18000000
30000000
60000000
c0000000
60000000
30000000
18000000
30000000
60000000
c0000000
60000000
30000000
18000000
30000000
60000000
00000000
00000000
ENDCHAR
STARTCHAR 243c
ENCODING 9276
SWIDTH 962 0
DWIDTH 26 0
BBX 26 27 0 -1
BITMAP
00000000
00000000
00000000
00000000
00000000
00000000
00000000
00000000
00000000
00000000
00000000
00000000
00000000
00000000
00000000
00000000
00000000
00000000
00000000
00000000
10410400
38e38e00
6db6db00
c71c7100
82082000
00000000
00000000
ENDCHAR
STARTCHAR 243d
ENCODING 9277
SWIDTH 962 0
DWIDTH 26 0
BBX 26 27 0 -1
BITMAP
00000000
00000000
00100000
00380000
007c0000
00c60000
01830000
03018000
0600c000
0c006000
18003000
30001800
7f83fc00
ff83fe00
01830000
01830000
01830000
01830000
01830000
01830000
01830000
01830000
01ff0000
01ff0000
00000000
00000000
00000000
ENDCHAR
STARTCHAR 243e
ENCODING 9278
SWIDTH 962 0
DWIDTH 26 0
BBX 26 27 0 -1
BITMAP
00000000
00000000
00000000
00000000
00000000
00000000
00000000
3ffffc00
00000000
0fc00000
0f800000
0f000000
0f800000
0cc00000
08600000
00300000
00180000
000c0000
00060000
00030000
00018000
0000c000
00000000
00000000
00000000
00000000
00000000
ENDCHAR
STARTCHAR 243f
ENCODING 9279
SWIDTH 962 0
DWIDTH 26 0
BBX 26 27 0 -1
BITMAP
00000000
00000000
00000000
00000000
40000000
44000000
4c000000
5c000000
7ffff800
5c000000
4c000000
44000000
40000000
00000000
00000200
00002200
00003200
00003a00
1ffffe00
00003a00
00003200
00002200
00000200
00000000
00000000
00000000
00000000
ENDCHAR
STARTCHAR 2440
ENCODING 9280
SWIDTH 962 0
DWIDTH 26 0
BBX 26 27 0 -1
BITMAP
00000000
00000000
00000000
7ffffc00
7ffffc00
00000c00
00000c00
00000c00
00000c00
00000c00
00000c00
00000c00
00000000
00000000
00000000
00000000
00000000
00000000
00000000
00000000
00000000
00000000
00000000
00000000
00000000
00000000
00000000
ENDCHAR
STARTCHAR 2441
ENCODING 9281
SWIDTH 962 0
DWIDTH 26 0
BBX 26 27 0 -1
BITMAP
00000000
00180000
00180000
00180000
00180000
00180000
00180000
00180000
00180000
00180000
00180000
00000000
00000000
00000000
00000000
00180000
00180000
00180000
00180000
00180000
00180000
00180000
00180000
00180000
00180000
00000000
00000000
ENDCHAR
STARTCHAR 2442
ENCODING 9282
SWIDTH 962 0
DWIDTH 26 0
BBX 26 27 0 -1
BITMAP
00000000
00000000
00000000
00380000
00380000
00380000
00380000
00100000
00100000
00100000
00000000
00000000
00000000
00000000
00000000
00000000
00000000
00000000
00000000
00000000
00000000
00000000
00000000
00000000
00000000
00000000
00000000
ENDCHAR
STARTCHAR 2443
ENCODING 9283
SWIDTH 962 0
DWIDTH 26 0
BBX 26 27 0 -1
BITMAP
00000000
00000000
00000000
01c38000
01c38000
01c38000
00810000
00810000
00810000
00000000
00000000
00000000
00000000
00000000
00000000
00000000
00000000
00000000
00000000
00000000
00000000
00000000
00000000
00000000
00000000
00000000
00000000
ENDCHAR
STARTCHAR 2444
ENCODING 9284
SWIDTH 962 0
DWIDTH 26 0
BBX 26 27 0 -1
BITMAP
00000000
0b019000
13018800
230d8400
230d8400
430d8200
430ff200
5fd98200
43118200
83118100
87218100
87818100
875ff900
8f218100
8b038100
8b03c100
9307a100
5305b200
43099a00
43119a00
43218e00
23018400
23018400
13018800
0b019000
00000000
00000000
ENDCHAR
STARTCHAR 2445
ENCODING 9285
SWIDTH 962 0
DWIDTH 26 0
BBX 26 27 0 -1
BITMAP
00000000
00000000
00000000
e0f00000
70200000
70200000
58200000
58200000
4c20e000
4c211000
46231800
46220800
46260c00
43260c00
43260c00
41a60c00
41a60c00
41a60c00
40e60c00
40e20800
40631800
40611200
e020e700
00000200
00000000
00000000
00000000
ENDCHAR
STARTCHAR 2446
ENCODING 9286
SWIDTH 962 0
DWIDTH 26 0
BBX 26 27 0 -1
BITMAP
00000000
00000000
00000000
ffc00000
8c400000
8c400000
0c000000
0c000000
0c000000
0cff7000
0c616000
0c606000
0c606000
0c606000
0c626000
0c7e6000
0c626000
0c606000
0c606000
0c606000
0c606100
0c616100
1eff7f00
00000000
00000000
00000000
00000000
ENDCHAR
STARTCHAR 2447
ENCODING 9287
SWIDTH 962 0
DWIDTH 26 0
BBX 26 27 0 -1
BITMAP
00000000
0e00e000
0c10c300
0c0cc600
0c06cc00
0c14ca00
0d1fff00
ffb00300
0c300a00
0c07fc00
0c061c00
0c061800
0c07f800
0c000c00
0c00fe00
0f9fe000
0e00c400
fc1ffe00
cc00c000
0c00c200
0c3fff00
0c00c000
0c00c000
fc03c000
38018000
00000000
00000000
ENDCHAR
STARTCHAR 2448
ENCODING 9288
SWIDTH 962 0
DWIDTH 26 0
BBX 26 27 0 -1
BITMAP
00000000
00000400
00000e00
ffffff00
01830000
01830000
01830000
01830000
01830000
01830000
01830000
01830000
01830000
01830000
01830000
03030000
03030000
03030200
06030200
06030200
0c030200
0c030300
18030300
3003ff00
c001fe00
00000000
00000000
ENDCHAR
STARTCHAR 2449
ENCODING 9289
SWIDTH 962 0
DWIDTH 26 0
BBX 26 27 0 -1
BITMAP
00000000
07001000
06007800
0601c000
06660600
fff7ff00
0e061800
1f861800
36c61800
36661800
66461800
460c1800
86101800
061c1800
00180000
00180600
ffffff00
003c0000
007a0000
00d98000
0198e000
03187800
0c181f00
70180600
00180000
00000000
00000000
ENDCHAR
STARTCHAR 244a
ENCODING 9290
SWIDTH 962 0
DWIDTH 26 0
BBX 26 27 0 -1
BITMAP
00000000
07000000
06010800
0621fc00
fff19c00
06019800
06219900
7ff11900
00031900
40121f00
7ffc0e00
c0300000
c0a00800
3fc7fc00
00011800
20411800
3fe11800
30e0b000
30c0b000
30c0e000
30c0e000
30c1b000
30c31c00
3fcc0f00
30d00200
00000000
00000000
ENDCHAR
STARTCHAR 244b
ENCODING 9291
SWIDTH 962 0
DWIDTH 26 0
BBX 26 27 0 -1
BITMAP
00000000
6001c000
38018000
1c018600
0cffff00
00018000
00018c00
003ffe00
60018000
30018600
38ffff00
18018000
0003c800
02061c00
063e3000
0607e000
0c038c00
0c0e0600
f87fff00
30318300
300db000
301d9c00
18718e00
19c18600
18018000
00000000
00000000
ENDCHAR
STARTCHAR 244c
ENCODING 9292
SWIDTH 962 0
DWIDTH 26 0
BBX 26 27 0 -1
BITMAP
00000000
ffffff00
ffffff00
ffffff00
ffffff00
ffffff00
ffffff00
ffffff00
ffffff00
ffffff00
ffffff00
ffffff00
ffffff00
ffffff00
ffffff00
ffffff00
ffffff00
ffffff00
ffffff00
ffffff00
ffffff00
ffffff00
ffffff00
ffffff00
ffffff00
00000000
00000000
ENDCHAR
ENDFONT
